<svg xmlns="http://www.w3.org/2000/svg" width="1374.63569" height="1922.41976" viewBox="0 0 1374.63569 1922.41976">
  <defs>
    <style>
      .cls-1 {
        fill: #c4c4c4;
      }

      .cls-2 {
        fill: #e0e0e0;
      }

      .cls-3 {
        fill: #f0efef;
      }

      .cls-4 {
        fill: #9aa1ad;
      }
    </style>
  </defs>
  <g id="Layer_1" data-name="Layer 1">
    <g id="Bottom_Layer" data-name="Bottom Layer">
      <g id="Cube_3">
        <path class="cls-1" d="M663.61412,1172.81447V778.56794L972.94619,648.73356l11.07074-4.64632v394.12122Q823.81542,1105.51125,663.61412,1172.81447Z"/>
        <polygon class="cls-2" points="361.599 636.084 663.614 778.75 984.017 644.087 682.001 501.421 361.599 636.084"/>
        <polygon class="cls-3" points="361.599 636.084 361.601 1032.199 663.614 1172.814 663.614 778.75 361.599 636.084"/>
      </g>
      <g id="Cube_4">
        <path class="cls-1" d="M1003.3817,1334.33945V940.09292l309.33207-129.83438,11.07074-4.64632v394.12122Q1163.583,1267.03625,1003.3817,1334.33945Z"/>
        <polygon class="cls-2" points="701.367 797.609 1003.382 940.275 1323.785 805.612 1021.769 662.946 701.367 797.609"/>
        <polygon class="cls-3" points="701.367 797.609 701.368 1193.724 1003.382 1334.339 1003.382 940.275 701.367 797.609"/>
      </g>
      <g id="Cube_1">
        <path class="cls-1" d="M303.163,1325.13082V930.88429L612.49511,801.04991l11.07073-4.64632v394.12122Q463.36434,1257.82761,303.163,1325.13082Z"/>
        <polygon class="cls-2" points="1.148 788.4 303.163 931.066 623.566 796.404 321.55 653.738 1.148 788.4"/>
        <polygon class="cls-3" points="1.148 788.4 1.15 1184.516 303.163 1325.131 303.163 931.066 1.148 788.4"/>
      </g>
      <g id="Cube_2">
        <path class="cls-1" d="M642.93052,1485.6305V1091.384L952.26259,961.54959l11.07073-4.64632v394.12122Q803.13182,1418.32728,642.93052,1485.6305Z"/>
        <polygon class="cls-2" points="340.915 948.9 642.931 1091.566 963.333 956.903 661.317 814.237 340.915 948.9"/>
        <polygon class="cls-3" points="340.915 948.9 340.917 1345.015 642.931 1485.631 642.931 1091.566 340.915 948.9"/>
      </g>
    </g>
    <g id="Top_Layer" data-name="Top Layer">
      <g id="Cube_3-2" data-name="Cube_3">
        <path class="cls-1" d="M662.46621,734.40409V340.15756L971.79828,210.32318l11.07073-4.64632V599.79808Q822.66751,667.10088,662.46621,734.40409Z"/>
        <polygon class="cls-2" points="360.451 197.674 662.466 340.34 982.869 205.677 680.853 63.011 360.451 197.674"/>
        <polygon class="cls-3" points="360.451 197.674 360.453 593.789 662.466 734.404 662.466 340.34 360.451 197.674"/>
      </g>
      <g id="Cube_4-2" data-name="Cube_4">
        <path class="cls-1" d="M1002.23379,895.92908V501.68255l309.33207-129.83439,11.07073-4.64632V761.32306Q1162.43509,828.62587,1002.23379,895.92908Z"/>
        <polygon class="cls-2" points="700.219 359.199 1002.234 501.865 1322.637 367.202 1020.621 224.536 700.219 359.199"/>
        <polygon class="cls-3" points="700.219 359.199 700.221 755.314 1002.234 895.929 1002.234 501.865 700.219 359.199"/>
      </g>
      <g id="Cube_1-2" data-name="Cube_1">
        <path class="cls-1" d="M302.01513,886.72044V492.47391L611.3472,362.63953l11.07073-4.64632V752.11443Q462.21643,819.41723,302.01513,886.72044Z"/>
        <polygon class="cls-2" points="0 349.99 302.015 492.656 622.418 357.993 320.402 215.327 0 349.99"/>
        <polygon class="cls-3" points="0 349.99 0.002 746.105 302.015 886.72 302.015 492.656 0 349.99"/>
      </g>
      <g id="Cube_2-2" data-name="Cube_2">
        <path class="cls-1" d="M641.7826,1047.22012V652.97359L951.11468,523.13921l11.07073-4.64632V912.61411Q801.98391,979.91691,641.7826,1047.22012Z"/>
        <polygon class="cls-2" points="339.767 510.49 641.783 653.156 962.185 518.493 660.169 375.827 339.767 510.49"/>
        <polygon class="cls-3" points="339.767 510.49 339.769 906.605 641.783 1047.22 641.783 653.156 339.767 510.49"/>
      </g>
    </g>
    <g>
      <path class="cls-4" d="M153.80818,1765.47152a27.9029,27.9029,0,0,0-7.08447-9.96485,56.00413,56.00413,0,0,0-13.3125-8.33008,126.45139,126.45139,0,0,0-20.31934-7.085A170.71919,170.71919,0,0,1,80.005,1727.63558q-14.24634-7.31689-23.27735-16.03711a59.86088,59.86088,0,0,1-13.624-19.30762,57.25189,57.25189,0,0,1-4.59326-23.04394,55.50549,55.50549,0,0,1,6.07226-26.002,59.5666,59.5666,0,0,1,16.81592-19.92968,78.718,78.718,0,0,1,25.3794-12.69043,109.01368,109.01368,0,0,1,31.76367-4.4375,97.90773,97.90773,0,0,1,32.46386,5.13867,76.74708,76.74708,0,0,1,25.30176,14.32422,65.42318,65.42318,0,0,1,22.42139,50.13672H156.066a44.62234,44.62234,0,0,0-2.7251-14.01368,30.89042,30.89042,0,0,0-7.08447-11.05468,34.31225,34.31225,0,0,0-11.91113-7.085,48.63782,48.63782,0,0,0-16.58252-2.56836,52.26683,52.26683,0,0,0-15.49219,2.10156,34.46107,34.46107,0,0,0-11.44433,5.83887,25.98822,25.98822,0,0,0-7.08448,9.10839,26.53885,26.53885,0,0,0-2.41308,11.28907,21.37585,21.37585,0,0,0,3.19189,11.52148,30.618,30.618,0,0,0,9.26416,9.18652,73.22559,73.22559,0,0,0,14.71387,7.62989,183.7316,183.7316,0,0,0,19.54053,6.38379,165.93218,165.93218,0,0,1,22.26562,7.94043,120.56948,120.56948,0,0,1,19.46289,10.74316,80.57247,80.57247,0,0,1,21.33106,23.2002q7.94091,13.23631,7.94091,30.51757,0,14.94728-5.99462,26.54786a56.69612,56.69612,0,0,1-16.582,19.54,74.15075,74.15075,0,0,1-25.22412,12.22266,117.3761,117.3761,0,0,1-31.91894,4.126,114.44653,114.44653,0,0,1-33.55371-5.05957A86.01851,86.01851,0,0,1,56.88337,1819.033a72.55936,72.55936,0,0,1-18.45117-22.73242q-6.77269-13.0796-6.773-30.67383H74.63337a46.42858,46.42858,0,0,0,3.58106,17.59473,31.16718,31.16718,0,0,0,9.18652,11.98925,36.86794,36.86794,0,0,0,13.93555,6.85059,69.61789,69.61789,0,0,0,17.9834,2.17969,54.1577,54.1577,0,0,0,15.49267-2.02344,35.1252,35.1252,0,0,0,11.44385-5.60547,24.34239,24.34239,0,0,0,7.1626-8.6416,24.87733,24.87733,0,0,0,2.49121-11.13281A30.52108,30.52108,0,0,0,153.80818,1765.47152Z"/>
      <path class="cls-4" d="M317.84089,1802.68441a32.40831,32.40831,0,0,0,10.12061-5.29395,24.11961,24.11961,0,0,0,6.77295-8.252,21.1474,21.1474,0,0,0,2.10205-10.74414h40.79394a50.24627,50.24627,0,0,1-5.37158,24.29,59.94157,59.94157,0,0,1-15.49267,19.30664,74.346,74.346,0,0,1-22.81006,12.69043,81.93422,81.93422,0,0,1-27.48194,4.59277q-19.61792,0-34.41015-6.61719a68.4526,68.4526,0,0,1-24.60108-18.13965,77.561,77.561,0,0,1-15.02539-27.01367,106.42434,106.42434,0,0,1-5.06006-33.24316v-4.6709a107.92674,107.92674,0,0,1,4.98243-33.24219,76.62129,76.62129,0,0,1,14.94726-27.01465,71.01377,71.01377,0,0,1,24.6792-18.21777q14.71362-6.69141,34.17676-6.69433a85.98219,85.98219,0,0,1,28.80469,4.67089,69.82345,69.82345,0,0,1,22.88867,13.07911,59.765,59.765,0,0,1,14.7915,20.62988,63.244,63.244,0,0,1,4.98242,27.01465H336.8365a28.39961,28.39961,0,0,0-1.86865-11.833,26.63222,26.63222,0,0,0-6.38379-9.65332,31.66181,31.66181,0,0,0-10.12061-6.46192,33.91038,33.91038,0,0,0-12.92334-2.41308q-10.27587,0-16.97168,4.20312A30.48728,30.48728,0,0,0,277.981,1714.868a49.35133,49.35133,0,0,0-5.68359,16.03711,104.73238,104.73238,0,0,0-1.63477,18.68457v4.6709a112.06352,112.06352,0,0,0,1.55713,18.918,46.4195,46.4195,0,0,0,5.60547,15.96,30.27584,30.27584,0,0,0,10.66553,11.21q6.77269,4.2041,17.20507,4.2041A39.14776,39.14776,0,0,0,317.84089,1802.68441Z"/>
      <path class="cls-4" d="M525.70369,1667.534v133.28222h45.6206v35.18848H433.9947v-35.18848h47.95655v-97.9375H433.9947V1667.534Zm-45.07618-52.39356a21.59288,21.59288,0,0,1,5.06055-7.39551,24.18994,24.18994,0,0,1,7.86279-4.67187,29.01984,29.01984,0,0,1,10.19874-1.71192q11.521,0,18.29492,6.46094,6.77343,6.4629,6.773,16.583,0,10.12208-6.773,16.582-6.77271,6.4629-18.29492,6.46192a28.95325,28.95325,0,0,1-10.19874-1.7129,22.7416,22.7416,0,0,1-7.86279-4.82714,19.998,19.998,0,0,1-5.06055-7.24024,24.86167,24.86167,0,0,1,0-18.52832Z"/>
      <path class="cls-4" d="M762.29353,1795.83382a71.81513,71.81513,0,0,1-16.89453,23.35547,73.60747,73.60747,0,0,1-25.22266,14.86914,95.93276,95.93276,0,0,1-32.38672,5.21582,87.9488,87.9488,0,0,1-25.9248-3.65918,72.753,72.753,0,0,1-21.40869-10.50976,73.80381,73.80381,0,0,1-15.49219-15.41407,96.1886,96.1886,0,0,1-11.44434-19.93066,118.7317,118.7317,0,0,1-6.92871-23.97754,152.489,152.489,0,0,1-2.41357-27.71484v-30.51856a150.09076,150.09076,0,0,1,2.18018-26.08008,110.3812,110.3812,0,0,1,6.53955-22.96582,86.25948,86.25948,0,0,1,13.0791-23.04394,84.27924,84.27924,0,0,1,18.37256-17.12793,76.44983,76.44983,0,0,1,20.16357-9.1084,84.20085,84.20085,0,0,1,23.58887-3.19141q18.68408,0,33.24316,5.29395a67.89614,67.89614,0,0,1,41.02735,39.08105,106.6658,106.6658,0,0,1,7.47265,31.91895h-43.5957a74.24723,74.24723,0,0,0-3.03711-17.75,35.10446,35.10446,0,0,0-6.92774-12.76758,29.85832,29.85832,0,0,0-11.5996-7.55176,47.78925,47.78925,0,0,0-16.583-2.56933,40.17927,40.17927,0,0,0-9.57617,1.08984,30.65307,30.65307,0,0,0-8.17383,3.27051,32.14132,32.14132,0,0,0-10.82129,10.665,61.02683,61.02683,0,0,0-7.085,16.11523,96.27307,96.27307,0,0,0-2.958,15.80371,173.528,173.528,0,0,0-.93457,18.60645v30.83008a177.32019,177.32019,0,0,0,1.47949,24.21093,81.86495,81.86495,0,0,0,4.59278,18.60645,44.81687,44.81687,0,0,0,5.21679,9.6543,30.60258,30.60258,0,0,0,6.92871,7.00586,28.86711,28.86711,0,0,0,9.41992,4.59375,42.40312,42.40312,0,0,0,11.59961,1.47949,50.68313,50.68313,0,0,0,15.41407-2.18067,29.26932,29.26932,0,0,0,11.67773-6.85058,32.62186,32.62186,0,0,0,7.63086-11.98926,59.50565,59.50565,0,0,0,3.42383-17.59375H769.69A86.28866,86.28866,0,0,1,762.29353,1795.83382Z"/>
      <path class="cls-4" d="M804.567,1716.19124a77.69824,77.69824,0,0,1,15.57031-27.16992,70.87006,70.87006,0,0,1,24.835-18.06152q14.7129-6.53907,33.709-6.53906,18.99462,0,33.78808,6.53906a72.27643,72.27643,0,0,1,25.06836,18.06152,79.0608,79.0608,0,0,1,15.41406,27.16992,105.60289,105.60289,0,0,1,5.29395,34.02149v3.26953a106.0891,106.0891,0,0,1-5.29395,34.17676,79.04273,79.04273,0,0,1-15.41406,27.16992,69.85466,69.85466,0,0,1-24.91308,17.9834q-14.79346,6.46-33.63184,6.46191-18.99756,0-33.86524-6.46191a69.65279,69.65279,0,0,1-24.99023-17.9834A77.68078,77.68078,0,0,1,804.567,1787.659a106.00905,106.00905,0,0,1-5.29395-34.17676v-3.26953A105.52288,105.52288,0,0,1,804.567,1716.19124Zm40.01562,57.14356a49.32726,49.32726,0,0,0,6.38379,16.11523,32.38077,32.38077,0,0,0,11.28906,11.05469q6.92578,4.05029,16.73731,4.04785a31.55942,31.55942,0,0,0,16.34863-4.04785A32.62753,32.62753,0,0,0,906.55232,1789.45a51.69058,51.69058,0,0,0,6.22852-16.11523,92.98711,92.98711,0,0,0,2.02343-19.85254v-3.26953a90.39146,90.39146,0,0,0-2.02343-19.46289,53.74059,53.74059,0,0,0-6.22852-16.19336,32.64477,32.64477,0,0,0-11.21094-11.05469q-6.85254-4.04736-16.66015-4.04785-9.6548,0-16.50391,4.04785a32.611,32.611,0,0,0-11.21094,11.05469,51.22327,51.22327,0,0,0-6.38379,16.19336,90.267,90.267,0,0,0-2.02441,19.46289v3.26953A92.8599,92.8599,0,0,0,844.58259,1773.3348Z"/>
      <path class="cls-4" d="M1135.66853,1665.744a105.16452,105.16452,0,0,1,13.46875,2.87988l-6.38379,43.12988a149.546,149.546,0,0,0-17.5166-3.03613,152.2719,152.2719,0,0,0-17.0498-1.01172,71.481,71.481,0,0,0-15.18067,1.47852,43.85383,43.85383,0,0,0-12.06738,4.4375,37.45509,37.45509,0,0,0-10.89942,8.71972,46.15689,46.15689,0,0,0-7.47363,12.45606v101.207h-43.28515V1667.534H1059.608l1.71289,23.82324.31153,3.73633a77.32116,77.32116,0,0,1,24.60058-22.499,62.05531,62.05531,0,0,1,31.29688-8.17382A116.04254,116.04254,0,0,1,1135.66853,1665.744Z"/>
      <path class="cls-4" d="M1234.30623,1832.73519a82.88288,82.88288,0,0,1-27.248-17.43848,74.93827,74.93827,0,0,1-17.5166-25.76953,82.43813,82.43813,0,0,1-6.15039-31.84082v-6.22852a98.46856,98.46856,0,0,1,6.07226-35.2666,81.828,81.828,0,0,1,16.97168-27.48144,76.535,76.535,0,0,1,25.84668-17.90528,81.98,81.98,0,0,1,32.542-6.38378q18.21681,0,32.46387,5.99414a68.16009,68.16009,0,0,1,24.21192,16.89355,73.62569,73.62569,0,0,1,14.94726,26.23633,106.094,106.094,0,0,1,5.13867,33.86523v18.373H1227.29939v.4668a59.59725,59.59725,0,0,0,5.60547,16.27148,41.14462,41.14462,0,0,0,9.18652,11.13184,43.11538,43.11538,0,0,0,13.5459,7.9414,47.96507,47.96507,0,0,0,16.66016,2.80274,65.69906,65.69906,0,0,0,24.75683-4.82715,45.58377,45.58377,0,0,0,19.46289-14.48047l21.64258,23.35547q-8.2544,11.67774-26.1582,21.17578-17.90625,9.49951-42.35059,9.498A94.001,94.001,0,0,1,1234.30623,1832.73519Zm16.81543-130.71289a30.75814,30.75814,0,0,0-10.58692,7.39648,41.66329,41.66329,0,0,0-7.78515,11.52149,62.94515,62.94515,0,0,0-4.67188,14.94726h71.001v-3.4248a33.75276,33.75276,0,0,0-2.49121-12.92383,33.29536,33.29536,0,0,0-6.85157-10.58789,31.91035,31.91035,0,0,0-10.665-6.92871,38.36445,38.36445,0,0,0-14.55859-2.56836A34.02139,34.02139,0,0,0,1251.12166,1702.0223Z"/>
    </g>
  </g>
</svg>
