<svg id="Layer_1" data-name="Layer 1" xmlns="http://www.w3.org/2000/svg" viewBox="0 0 1341.59264 1776.27035">
    <defs>
        <style>.cls-1{fill:#c4c4c4;}.cls-2{fill:#e0e0e0;}.cls-3{fill:#f0efef;}.cls-4{fill:#9aa1ad;}</style>
    </defs>
    <g id="Bottom_Layer" data-name="Bottom Layer">
        <g id="Cube_3" data-name="Cube 3">
            <path class="cls-1"
                  d="M663.61407,1109.80345V715.55687L972.94623,585.72258l11.07068-4.64642V975.19749Q823.81537,1042.50029,663.61407,1109.80345Z"/>
            <polygon class="cls-2"
                     points="361.599 573.073 663.614 715.739 984.017 581.076 682.001 438.41 361.599 573.073"/>
            <polygon class="cls-3"
                     points="361.599 573.073 361.601 969.188 663.614 1109.803 663.614 715.739 361.599 573.073"/>
        </g>
        <g id="Cube_4" data-name="Cube 4">
            <path class="cls-1"
                  d="M1003.38171,1271.329V877.08189l309.33216-129.83441,11.07068-4.6463V1136.7224Q1163.583,1204.0252,1003.38171,1271.329Z"/>
            <polygon class="cls-2"
                     points="701.367 734.598 1003.382 877.264 1323.785 742.601 1021.769 599.935 701.367 734.598"/>
            <polygon class="cls-3"
                     points="701.367 734.598 701.368 1130.713 1003.382 1271.328 1003.382 877.264 701.367 734.598"/>
        </g>
        <g id="Cube_1" data-name="Cube 1">
            <path class="cls-1"
                  d="M303.163,1262.11986V867.87328L612.49512,738.039l11.07068-4.64631V1127.5139Q463.36434,1194.8167,303.163,1262.11986Z"/>
            <polygon class="cls-2" points="1.148 725.389 303.163 868.055 623.566 733.393 321.55 590.727 1.148 725.389"/>
            <polygon class="cls-3" points="1.148 725.389 1.15 1121.505 303.163 1262.12 303.163 868.055 1.148 725.389"/>
        </g>
        <g id="Cube_2" data-name="Cube 2">
            <path class="cls-1"
                  d="M642.93048,1422.61949V1028.373L952.26257,898.539l11.07068-4.64631V1288.0139Q803.13172,1355.31634,642.93048,1422.61949Z"/>
            <polygon class="cls-2"
                     points="340.915 885.889 642.931 1028.555 963.333 893.892 661.317 751.226 340.915 885.889"/>
            <polygon class="cls-3"
                     points="340.915 885.889 340.917 1282.004 642.931 1422.62 642.931 1028.555 340.915 885.889"/>
        </g>
    </g>
    <g id="Top_Layer" data-name="Top Layer">
        <g id="Cube_3-2" data-name="Cube 3-2">
            <path class="cls-1"
                  d="M662.46619,671.39311V277.14659l309.33209-129.8344,11.07068-4.6463v394.1212Q822.66742,604.08989,662.46619,671.39311Z"/>
            <polygon class="cls-2" points="360.451 134.663 662.466 277.329 982.869 142.666 680.853 0 360.451 134.663"/>
            <polygon class="cls-3"
                     points="360.451 134.663 360.453 530.778 662.466 671.393 662.466 277.329 360.451 134.663"/>
        </g>
        <g id="Cube_4-2" data-name="Cube 4-2">
            <path class="cls-1"
                  d="M1002.23383,832.91808V438.67149L1311.56592,308.8372l11.07068-4.64639V698.31212Q1162.43505,765.61492,1002.23383,832.91808Z"/>
            <polygon class="cls-2"
                     points="700.219 296.188 1002.234 438.854 1322.637 304.191 1020.621 161.525 700.219 296.188"/>
            <polygon class="cls-3"
                     points="700.219 296.188 700.221 692.303 1002.234 832.918 1002.234 438.854 700.219 296.188"/>
        </g>
        <g id="Cube_1-2" data-name="Cube 1-2">
            <path class="cls-1"
                  d="M302.01511,823.709V429.46291L611.34723,299.629l11.07068-4.6463V689.10338Q462.21637,756.40627,302.01511,823.709Z"/>
            <polygon class="cls-2" points="0 286.979 302.015 429.645 622.418 294.982 320.402 152.316 0 286.979"/>
            <polygon class="cls-3" points="0 286.979 0.002 683.094 302.015 823.709 302.015 429.645 0 286.979"/>
        </g>
        <g id="Cube_2-2" data-name="Cube 2-2">
            <path class="cls-1"
                  d="M641.78259,984.209V589.96257l309.3321-129.83435,11.07067-4.6463V849.60307Q801.98383,916.90587,641.78259,984.209Z"/>
            <polygon class="cls-2"
                     points="339.767 447.479 641.783 590.145 962.185 455.482 660.169 312.816 339.767 447.479"/>
            <polygon class="cls-3"
                     points="339.767 447.479 339.769 843.594 641.783 984.209 641.783 590.145 339.767 447.479"/>
        </g>
    </g>
    <path class="cls-4"
          d="M153.8082,1702.46056a27.89779,27.89779,0,0,0-7.085-9.96485,55.98215,55.98215,0,0,0-13.3125-8.32995,126.42891,126.42891,0,0,0-20.3193-7.085,170.72561,170.72561,0,0,1-33.0869-12.45606q-14.24561-7.31689-23.27739-16.03711A59.85988,59.85988,0,0,1,43.1031,1629.28a57.25975,57.25975,0,0,1-4.5928-23.04394,55.49969,55.49969,0,0,1,6.0723-26.00195A59.5588,59.5588,0,0,1,61.398,1560.30406a78.72606,78.72606,0,0,1,25.38-12.68994,109.012,109.012,0,0,1,31.7637-4.4375,97.9112,97.9112,0,0,1,32.4638,5.13867,76.75763,76.75763,0,0,1,25.30181,14.32422,65.4252,65.4252,0,0,1,22.4209,50.13672H156.066a44.63751,44.63751,0,0,0-2.7256-14.01355,30.88744,30.88744,0,0,0-7.084-11.05469,34.315,34.315,0,0,0-11.9111-7.085,48.63846,48.63846,0,0,0-16.583-2.56836,52.27326,52.27326,0,0,0-15.4922,2.10144,34.46081,34.46081,0,0,0-11.4443,5.83887,25.992,25.992,0,0,0-7.084,9.1084,26.53808,26.53808,0,0,0-2.4131,11.28906,21.37535,21.37535,0,0,0,3.1914,11.52136,30.61461,30.61461,0,0,0,9.2646,9.18665,73.21552,73.21552,0,0,0,14.7139,7.63,183.68127,183.68127,0,0,0,19.54,6.38379,165.90684,165.90684,0,0,1,22.2657,7.93994,120.54957,120.54957,0,0,1,19.46291,10.743,80.56069,80.56069,0,0,1,21.331,23.2q7.941,13.23633,7.94141,30.51758,0,14.94726-5.99511,26.54785a56.696,56.696,0,0,1-16.582,19.54,74.14424,74.14424,0,0,1-25.22369,12.22265,117.37884,117.37884,0,0,1-31.9189,4.12586,114.4474,114.4474,0,0,1-33.5537-5.06006,86.008,86.008,0,0,1-28.88279-14.87,72.55753,72.55753,0,0,1-18.4512-22.73242q-6.7734-13.08-6.7734-30.67383H74.6334a46.41744,46.41744,0,0,0,3.581,17.59473,31.16738,31.16738,0,0,0,9.1866,11.98926,36.86448,36.86448,0,0,0,13.9355,6.85058,69.61484,69.61484,0,0,0,17.9834,2.18006,54.1547,54.1547,0,0,0,15.4922-2.02344,35.12654,35.12654,0,0,0,11.44431-5.60547,24.33382,24.33382,0,0,0,7.16209-8.6416,24.8769,24.8769,0,0,0,2.4912-11.13281A30.5221,30.5221,0,0,0,153.8082,1702.46056Z"/>
    <path class="cls-4"
          d="M317.84,1739.67345a32.41253,32.41253,0,0,0,10.12109-5.29395,24.12466,24.12466,0,0,0,6.77249-8.252,21.14671,21.14671,0,0,0,2.10251-10.74414H377.63a50.246,50.246,0,0,1-5.372,24.29,59.94262,59.94262,0,0,1-15.49219,19.30664A74.34819,74.34819,0,0,1,333.9552,1771.67a81.93131,81.93131,0,0,1-27.48138,4.59277q-19.61871,0-34.41-6.61719a68.456,68.456,0,0,1-24.6015-18.14,77.56809,77.56809,0,0,1-15.02541-27.01367,106.42424,106.42424,0,0,1-5.06-33.243V1686.579a107.92881,107.92881,0,0,1,4.9824-33.24218,76.60727,76.60727,0,0,1,14.9473-27.01465,71.00743,71.00743,0,0,1,24.67871-18.21765q14.7144-6.69159,34.17679-6.69446a85.9777,85.9777,0,0,1,28.80469,4.6709,69.81941,69.81941,0,0,1,22.88861,13.0791,59.77313,59.77313,0,0,1,14.792,20.63,63.25011,63.25011,0,0,1,4.98239,27.01465h-40.7933a28.39968,28.39968,0,0,0-1.86911-11.833,26.6265,26.6265,0,0,0-6.38379-9.65344,31.66722,31.66722,0,0,0-10.12-6.46191,33.91394,33.91394,0,0,0-12.92389-2.41309q-10.27591,0-16.97171,4.20325a30.48294,30.48294,0,0,0-10.58691,11.21094,49.33192,49.33192,0,0,0-5.68359,16.03711,104.73572,104.73572,0,0,0-1.63471,18.68457V1691.25a112.11354,112.11354,0,0,0,1.55661,18.91785,46.44,46.44,0,0,0,5.6055,15.96,30.28109,30.28109,0,0,0,10.666,11.21q6.77192,4.20393,17.2051,4.2041A39.1432,39.1432,0,0,0,317.84,1739.67345Z"/>
    <path class="cls-4"
          d="M525.70367,1604.52306v133.28222h45.62v35.18848h-137.329v-35.18848h47.95612v-97.9375H433.99469v-35.34472Zm-45.0762-52.39356a21.59112,21.59112,0,0,1,5.06061-7.39551,24.18977,24.18977,0,0,1,7.8623-4.67187,29.02337,29.02337,0,0,1,10.19919-1.71192q11.52092,0,18.29492,6.46094,6.77336,6.4629,6.77253,16.583,0,10.12225-6.77253,16.582-6.77343,6.46288-18.29489,6.462a28.95559,28.95559,0,0,1-10.19918-1.71289,22.74443,22.74443,0,0,1-7.86231-4.82715,19.99834,19.99834,0,0,1-5.06061-7.24,24.85548,24.85548,0,0,1,0-18.52832Z"/>
    <path class="cls-4"
          d="M762.29352,1732.82274a71.81515,71.81515,0,0,1-16.89447,23.35547,73.6057,73.6057,0,0,1-25.22272,14.86914,95.93369,95.93369,0,0,1-32.38672,5.21594,87.95,87.95,0,0,1-25.9248-3.65918,72.76431,72.76431,0,0,1-21.40918-10.51A73.81993,73.81993,0,0,1,624.9635,1746.68a96.18405,96.18405,0,0,1-11.4444-19.93054,118.73422,118.73422,0,0,1-6.92871-23.97754,152.49762,152.49762,0,0,1-2.41308-27.71485v-30.51806a150.08888,150.08888,0,0,1,2.18-26.08,110.38713,110.38713,0,0,1,6.54-22.96594,86.236,86.236,0,0,1,13.0791-23.04395,84.26615,84.26615,0,0,1,18.37213-17.12793,76.45542,76.45542,0,0,1,20.16412-9.10839,84.19913,84.19913,0,0,1,23.58881-3.19141q18.684.00018,33.24323,5.29394a67.89612,67.89612,0,0,1,41.0274,39.08106,106.66448,106.66448,0,0,1,7.4726,31.91894H726.2486a74.24655,74.24655,0,0,0-3.03711-17.75,35.106,35.106,0,0,0-6.92768-12.76757,29.85964,29.85964,0,0,0-11.6-7.55176,47.79043,47.79043,0,0,0-16.58313-2.56946,40.18026,40.18026,0,0,0-9.57611,1.09,30.6536,30.6536,0,0,0-8.17389,3.2705,32.14055,32.14055,0,0,0-10.82123,10.665,61.02823,61.02823,0,0,0-7.085,16.11536,96.26081,96.26081,0,0,0-2.958,15.80371,173.51815,173.51815,0,0,0-.93457,18.60645v30.83a177.31516,177.31516,0,0,0,1.48,24.21094,81.8641,81.8641,0,0,0,4.59277,18.60644,44.81971,44.81971,0,0,0,5.2168,9.6543,30.60123,30.60123,0,0,0,6.92871,7.00586,28.86467,28.86467,0,0,0,9.42,4.59375,42.405,42.405,0,0,0,11.6,1.47949,50.68134,50.68134,0,0,0,15.41412-2.18066,29.26878,29.26878,0,0,0,11.67768-6.85059,32.62279,32.62279,0,0,0,7.63092-11.98925,59.50606,59.50606,0,0,0,3.42383-17.59375H769.69A86.28671,86.28671,0,0,1,762.29352,1732.82274Z"/>
    <path class="cls-4"
          d="M804.567,1653.18016a77.69839,77.69839,0,0,1,15.57-27.17,70.87177,70.87177,0,0,1,24.8349-18.06153q14.7129-6.53905,33.709-6.53906t33.78808,6.53906a72.27739,72.27739,0,0,1,25.06842,18.06153,79.06074,79.06074,0,0,1,15.414,27.17,105.60341,105.60341,0,0,1,5.294,34.02148v3.27a106.08842,106.08842,0,0,1-5.294,34.17676,79.03928,79.03928,0,0,1-15.414,27.17,69.85382,69.85382,0,0,1-24.91308,17.98339q-14.79355,6.46-33.6319,6.462-18.99747,0-33.86517-6.462a69.6525,69.6525,0,0,1-24.99-17.98339,77.679,77.679,0,0,1-15.57-27.17,106.008,106.008,0,0,1-5.294-34.17676v-3.27A105.52325,105.52325,0,0,1,804.567,1653.18016Zm40.01562,57.14356a49.32615,49.32615,0,0,0,6.38379,16.11523,32.38,32.38,0,0,0,11.289,11.05469q6.92578,4.05011,16.73731,4.04785a31.56021,31.56021,0,0,0,16.34869-4.04785,32.62718,32.62718,0,0,0,11.21088-11.05469,51.68913,51.68913,0,0,0,6.22851-16.11523,92.98324,92.98324,0,0,0,2.0235-19.85254v-3.27a90.38733,90.38733,0,0,0-2.0235-19.46289,53.73927,53.73927,0,0,0-6.22851-16.19336,32.64408,32.64408,0,0,0-11.21088-11.05469q-6.85263-4.04755-16.66-4.04785-9.6548.00018-16.50391,4.04785a32.6122,32.6122,0,0,0-11.21088,11.05469,51.22179,51.22179,0,0,0-6.38378,16.19336,90.2669,90.2669,0,0,0-2.02442,19.46289v3.27a92.85884,92.85884,0,0,0,2.02411,19.85266Z"/>
    <path class="cls-4"
          d="M1135.66846,1602.733a105.1659,105.1659,0,0,1,13.46875,2.88l-6.38379,43.13a149.55408,149.55408,0,0,0-17.5166-3.03614,152.2562,152.2562,0,0,0-17.05005-1.01171,71.47726,71.47726,0,0,0-15.18067,1.47851,43.85645,43.85645,0,0,0-12.06738,4.4375,37.45843,37.45843,0,0,0-10.89941,8.72,46.15526,46.15526,0,0,0-7.47364,12.45606v101.207h-43.28521V1604.52306h40.32721l1.71289,23.82324.31152,3.73633a77.32294,77.32294,0,0,1,24.60059-22.499,62.05477,62.05477,0,0,1,31.29687-8.17395A116.0254,116.0254,0,0,1,1135.66846,1602.733Z"/>
    <path class="cls-4"
          d="M1234.30615,1769.72423a82.885,82.885,0,0,1-27.248-17.43848,74.93891,74.93891,0,0,1-17.51661-25.77,82.43834,82.43834,0,0,1-6.15-31.84082v-6.22864a98.46793,98.46793,0,0,1,6.07227-35.2666,81.82839,81.82839,0,0,1,16.97155-27.48144A76.53764,76.53764,0,0,1,1232.282,1607.793a81.98269,81.98269,0,0,1,32.542-6.38379q18.21681.0002,32.46387,5.99415a68.16007,68.16007,0,0,1,24.21192,16.89355,73.62791,73.62791,0,0,1,14.94726,26.23645,106.097,106.097,0,0,1,5.13855,33.86523v18.37305H1227.29944v.4668a59.59314,59.59314,0,0,0,5.60547,16.27148,41.144,41.144,0,0,0,9.18652,11.132,43.11622,43.11622,0,0,0,13.5459,7.94141,47.96411,47.96411,0,0,0,16.66,2.80273,65.69777,65.69777,0,0,0,24.757-4.82715,45.5845,45.5845,0,0,0,19.46289-14.48l21.64246,23.35535q-8.25421,11.67792-26.15821,21.17578-17.90625,9.49988-42.35046,9.498A94.0015,94.0015,0,0,1,1234.30615,1769.72423Zm16.81555-130.71289a30.759,30.759,0,0,0-10.587,7.39648,41.6646,41.6646,0,0,0-7.78516,11.52149,62.93927,62.93927,0,0,0-4.67187,14.94714h71.001v-3.42481a33.75232,33.75232,0,0,0-2.49121-12.92382,33.29445,33.29445,0,0,0-6.85156-10.58789,31.90968,31.90968,0,0,0-10.665-6.92871,38.36433,38.36433,0,0,0-14.55859-2.56836A34.02178,34.02178,0,0,0,1251.1217,1639.01134Z"/>
</svg>