<svg id="Layer_1" data-name="Layer 1" xmlns="http://www.w3.org/2000/svg" viewBox="0 0 1374.6357 1922.4198"><defs><style>.cls-1{fill:#c4c4c4;}.cls-2{fill:#e0e0e0;}.cls-3{fill:#f0efef;}.cls-4{fill:#9aa1ad;}</style></defs><g id="Bottom_Layer" data-name="Bottom Layer"><g id="Cube_3"><path class="cls-1" d="M663.6141,1172.8145V778.5679L972.9462,648.7336l11.0707-4.6464v394.1213Q823.8154,1105.5113,663.6141,1172.8145Z"/><polygon class="cls-2" points="361.599 636.084 663.614 778.75 984.017 644.087 682.001 501.421 361.599 636.084"/><polygon class="cls-3" points="361.599 636.084 361.601 1032.199 663.614 1172.814 663.614 778.75 361.599 636.084"/></g><g id="Cube_4"><path class="cls-1" d="M1003.3817,1334.34V940.0929l309.3321-129.8344,11.0707-4.6463v394.1212Q1163.583,1267.0363,1003.3817,1334.34Z"/><polygon class="cls-2" points="701.367 797.609 1003.382 940.275 1323.785 805.612 1021.769 662.946 701.367 797.609"/><polygon class="cls-3" points="701.367 797.609 701.368 1193.724 1003.382 1334.339 1003.382 940.275 701.367 797.609"/></g><g id="Cube_1"><path class="cls-1" d="M303.163,1325.1308V930.8843L612.4951,801.05l11.0707-4.6463v394.1212Q463.3643,1257.8276,303.163,1325.1308Z"/><polygon class="cls-2" points="1.148 788.4 303.163 931.066 623.566 796.404 321.55 653.738 1.148 788.4"/><polygon class="cls-3" points="1.148 788.4 1.15 1184.516 303.163 1325.131 303.163 931.066 1.148 788.4"/></g><g id="Cube_2"><path class="cls-1" d="M642.9305,1485.6305V1091.384L952.2626,961.55l11.0707-4.6463v394.1212Q803.1318,1418.3273,642.9305,1485.6305Z"/><polygon class="cls-2" points="340.915 948.9 642.931 1091.566 963.333 956.903 661.317 814.237 340.915 948.9"/><polygon class="cls-3" points="340.915 948.9 340.917 1345.015 642.931 1485.631 642.931 1091.566 340.915 948.9"/></g></g><g id="Top_Layer" data-name="Top Layer"><g id="Cube_3-2" data-name="Cube_3"><path class="cls-1" d="M662.4662,734.4041V340.1576L971.7983,210.3232l11.0707-4.6463V599.7981Q822.6675,667.1009,662.4662,734.4041Z"/><polygon class="cls-2" points="360.451 197.674 662.466 340.34 982.869 205.677 680.853 63.011 360.451 197.674"/><polygon class="cls-3" points="360.451 197.674 360.453 593.789 662.466 734.404 662.466 340.34 360.451 197.674"/></g><g id="Cube_4-2" data-name="Cube_4"><path class="cls-1" d="M1002.2338,895.9291V501.6825l309.3321-129.8343,11.0707-4.6464V761.3231Q1162.4351,828.6259,1002.2338,895.9291Z"/><polygon class="cls-2" points="700.219 359.199 1002.234 501.865 1322.637 367.202 1020.621 224.536 700.219 359.199"/><polygon class="cls-3" points="700.219 359.199 700.221 755.314 1002.234 895.929 1002.234 501.865 700.219 359.199"/></g><g id="Cube_1-2" data-name="Cube_1"><path class="cls-1" d="M302.0151,886.72V492.4739L611.3472,362.64l11.0707-4.6463V752.1144Q462.2164,819.4173,302.0151,886.72Z"/><polygon class="cls-2" points="0 349.99 302.015 492.656 622.418 357.993 320.402 215.327 0 349.99"/><polygon class="cls-3" points="0 349.99 0.002 746.105 302.015 886.72 302.015 492.656 0 349.99"/></g><g id="Cube_2-2" data-name="Cube_2"><path class="cls-1" d="M641.7826,1047.22V652.9736L951.1147,523.1392l11.0707-4.6463V912.6141Q801.9839,979.9169,641.7826,1047.22Z"/><polygon class="cls-2" points="339.767 510.49 641.783 653.156 962.185 518.493 660.169 375.827 339.767 510.49"/><polygon class="cls-3" points="339.767 510.49 339.769 906.605 641.783 1047.22 641.783 653.156 339.767 510.49"/></g></g><path class="cls-4" d="M153.8082,1765.4715a27.8986,27.8986,0,0,0-7.085-9.9648,55.9816,55.9816,0,0,0-13.3125-8.33,126.4291,126.4291,0,0,0-20.3193-7.085,170.7275,170.7275,0,0,1-33.0869-12.456q-14.2456-7.317-23.2774-16.0371a59.86,59.86,0,0,1-13.624-19.3076,57.26,57.26,0,0,1-4.5928-23.044,55.5,55.5,0,0,1,6.0723-26.0019,59.5582,59.5582,0,0,1,16.8154-19.93,78.7261,78.7261,0,0,1,25.38-12.69,109.0146,109.0146,0,0,1,31.7637-4.4375,97.9107,97.9107,0,0,1,32.4638,5.1387,76.7575,76.7575,0,0,1,25.3018,14.3242,65.4252,65.4252,0,0,1,22.4209,50.1367H156.066a44.6371,44.6371,0,0,0-2.7256-14.0136,30.8876,30.8876,0,0,0-7.084-11.0547,34.3158,34.3158,0,0,0-11.9111-7.085,48.64,48.64,0,0,0-16.583-2.5683,52.2712,52.2712,0,0,0-15.4922,2.1015,34.4614,34.4614,0,0,0-11.4443,5.8389,25.9919,25.9919,0,0,0-7.084,9.1084,26.538,26.538,0,0,0-2.4131,11.2891,21.3754,21.3754,0,0,0,3.1914,11.5214,30.6154,30.6154,0,0,0,9.2646,9.1866,73.2155,73.2155,0,0,0,14.7139,7.63,183.6816,183.6816,0,0,0,19.54,6.3838,165.9054,165.9054,0,0,1,22.2657,7.94,120.5532,120.5532,0,0,1,19.4629,10.7431,80.56,80.56,0,0,1,21.331,23.2q7.941,13.2363,7.9414,30.5176,0,14.9472-5.9951,26.5479a56.6968,56.6968,0,0,1-16.582,19.54,74.1464,74.1464,0,0,1-25.2237,12.2227,117.3791,117.3791,0,0,1-31.9189,4.1259,114.4439,114.4439,0,0,1-33.5537-5.06,86.0081,86.0081,0,0,1-28.8828-14.87,72.5577,72.5577,0,0,1-18.4512-22.7324q-6.7734-13.08-6.7734-30.6738H74.6334a46.4175,46.4175,0,0,0,3.581,17.5947,31.1678,31.1678,0,0,0,9.1866,11.9893,36.8652,36.8652,0,0,0,13.9355,6.8506,69.6189,69.6189,0,0,0,17.9834,2.18,54.1571,54.1571,0,0,0,15.4922-2.0234,35.1262,35.1262,0,0,0,11.4443-5.6055,24.3342,24.3342,0,0,0,7.1621-8.6416,24.8767,24.8767,0,0,0,2.4912-11.1328A30.5224,30.5224,0,0,0,153.8082,1765.4715Z"/><path class="cls-4" d="M317.84,1802.6844a32.4118,32.4118,0,0,0,10.1211-5.2939,24.1248,24.1248,0,0,0,6.7725-8.252,21.1469,21.1469,0,0,0,2.1025-10.7441H377.63a50.2456,50.2456,0,0,1-5.372,24.29,59.9419,59.9419,0,0,1-15.4922,19.3066,74.3479,74.3479,0,0,1-22.8106,12.69,81.9319,81.9319,0,0,1-27.4814,4.5928q-19.6187,0-34.41-6.6172a68.4555,68.4555,0,0,1-24.6015-18.14,77.5681,77.5681,0,0,1-15.0254-27.0137,106.4243,106.4243,0,0,1-5.06-33.2431V1749.59a107.9284,107.9284,0,0,1,4.9824-33.2422,76.6074,76.6074,0,0,1,14.9473-27.0147,71.0071,71.0071,0,0,1,24.6787-18.2177q14.7144-6.6915,34.1768-6.6944a85.98,85.98,0,0,1,28.8047,4.6709,69.8206,69.8206,0,0,1,22.8886,13.0791,59.773,59.773,0,0,1,14.792,20.63,63.25,63.25,0,0,1,4.9824,27.0147H336.8365a28.3992,28.3992,0,0,0-1.8691-11.833,26.6269,26.6269,0,0,0-6.3838-9.6534,31.6674,31.6674,0,0,0-10.12-6.4619,33.913,33.913,0,0,0-12.9239-2.4131q-10.2759,0-16.9717,4.2032a30.4823,30.4823,0,0,0-10.5869,11.2109,49.332,49.332,0,0,0-5.6836,16.0371,104.7373,104.7373,0,0,0-1.6347,18.6846v4.6709a112.1118,112.1118,0,0,0,1.5566,18.9179,46.4393,46.4393,0,0,0,5.6055,15.96,30.2814,30.2814,0,0,0,10.666,11.21q6.7719,4.204,17.2051,4.2041A39.1448,39.1448,0,0,0,317.84,1802.6844Z"/><path class="cls-4" d="M525.7037,1667.534v133.2822h45.62v35.1885H433.9947v-35.1885h47.9561v-97.9375H433.9947V1667.534Zm-45.0762-52.3935a21.5916,21.5916,0,0,1,5.0606-7.3955,24.1908,24.1908,0,0,1,7.8623-4.6719,29.021,29.021,0,0,1,10.1992-1.7119q11.5209,0,18.2949,6.4609,6.7734,6.4629,6.7725,16.583,0,10.1222-6.7725,16.582-6.7734,6.4629-18.2949,6.462a28.9551,28.9551,0,0,1-10.1992-1.7129,22.7435,22.7435,0,0,1-7.8623-4.8272,19.9983,19.9983,0,0,1-5.0606-7.24,24.8554,24.8554,0,0,1,0-18.5283Z"/><path class="cls-4" d="M762.2935,1795.8338a71.8149,71.8149,0,0,1-16.8945,23.3555,73.6067,73.6067,0,0,1-25.2227,14.8691,95.9315,95.9315,0,0,1-32.3867,5.2159,87.9513,87.9513,0,0,1-25.9248-3.6592,72.7636,72.7636,0,0,1-21.4092-10.51,73.8159,73.8159,0,0,1-15.4921-15.4141,96.1852,96.1852,0,0,1-11.4444-19.9306,118.7326,118.7326,0,0,1-6.9287-23.9776,152.4938,152.4938,0,0,1-2.4131-27.7148V1707.55a150.0886,150.0886,0,0,1,2.18-26.08,110.3874,110.3874,0,0,1,6.54-22.9659,86.2358,86.2358,0,0,1,13.0791-23.0439,84.2662,84.2662,0,0,1,18.3721-17.1279,76.4579,76.4579,0,0,1,20.1641-9.1084,84.2,84.2,0,0,1,23.5888-3.1914q18.6841,0,33.2432,5.2939a67.8959,67.8959,0,0,1,41.0274,39.0811,106.6662,106.6662,0,0,1,7.4726,31.9189H726.2486a74.2447,74.2447,0,0,0-3.0371-17.75,35.1057,35.1057,0,0,0-6.9277-12.7676,29.8593,29.8593,0,0,0-11.6-7.5517,47.7893,47.7893,0,0,0-16.5831-2.5694,40.18,40.18,0,0,0-9.5761,1.09,30.6545,30.6545,0,0,0-8.1739,3.2705,32.1408,32.1408,0,0,0-10.8212,10.665,61.0271,61.0271,0,0,0-7.085,16.1153,96.2662,96.2662,0,0,0-2.958,15.8037,173.5135,173.5135,0,0,0-.9346,18.6064v30.83a177.3162,177.3162,0,0,0,1.48,24.2109,81.8651,81.8651,0,0,0,4.5928,18.6065,44.8193,44.8193,0,0,0,5.2168,9.6543,30.6006,30.6006,0,0,0,6.9287,7.0058,28.8658,28.8658,0,0,0,9.42,4.5938,42.4032,42.4032,0,0,0,11.6,1.4795,50.6826,50.6826,0,0,0,15.4141-2.1807,29.2679,29.2679,0,0,0,11.6777-6.8506,32.6224,32.6224,0,0,0,7.6309-11.9892,59.5055,59.5055,0,0,0,3.4238-17.5938H769.69A86.2867,86.2867,0,0,1,762.2935,1795.8338Z"/><path class="cls-4" d="M804.567,1716.1912a77.6978,77.6978,0,0,1,15.57-27.17,70.8716,70.8716,0,0,1,24.8349-18.0615q14.7129-6.5391,33.709-6.5391t33.7881,6.5391a72.2776,72.2776,0,0,1,25.0684,18.0615,79.06,79.06,0,0,1,15.414,27.17,105.6022,105.6022,0,0,1,5.294,34.0215v3.27a106.0871,106.0871,0,0,1-5.294,34.1767,79.04,79.04,0,0,1-15.414,27.17,69.8549,69.8549,0,0,1-24.9131,17.9834q-14.7935,6.46-33.6319,6.462-18.9975,0-33.8652-6.462a69.6523,69.6523,0,0,1-24.99-17.9834,77.679,77.679,0,0,1-15.57-27.17,106.0079,106.0079,0,0,1-5.294-34.1767v-3.27A105.523,105.523,0,0,1,804.567,1716.1912Zm40.0156,57.1436a49.3259,49.3259,0,0,0,6.3838,16.1152,32.38,32.38,0,0,0,11.289,11.0547q6.9258,4.05,16.7373,4.0479a31.56,31.56,0,0,0,16.3487-4.0479,32.6267,32.6267,0,0,0,11.2109-11.0547,51.6885,51.6885,0,0,0,6.2285-16.1152,92.9837,92.9837,0,0,0,2.0235-19.8525v-3.27a90.389,90.389,0,0,0-2.0235-19.4629,53.7389,53.7389,0,0,0-6.2285-16.1933,32.6443,32.6443,0,0,0-11.2109-11.0547q-6.8526-4.0475-16.66-4.0479-9.6548,0-16.5039,4.0479a32.6115,32.6115,0,0,0-11.2109,11.0547,51.2223,51.2223,0,0,0-6.3838,16.1933,90.2684,90.2684,0,0,0-2.0244,19.4629v3.27A92.86,92.86,0,0,0,844.5826,1773.3348Z"/><path class="cls-4" d="M1135.6685,1665.744a105.1505,105.1505,0,0,1,13.4688,2.88l-6.3838,43.13a149.5651,149.5651,0,0,0-17.5166-3.0361,152.2786,152.2786,0,0,0-17.05-1.0117,71.48,71.48,0,0,0-15.1807,1.4785,43.8568,43.8568,0,0,0-12.0674,4.4375,37.4573,37.4573,0,0,0-10.8994,8.72,46.1582,46.1582,0,0,0-7.4736,12.4561v101.207h-43.2852V1667.534h40.3272l1.7129,23.8233.3115,3.7363a77.3215,77.3215,0,0,1,24.6006-22.499,62.0544,62.0544,0,0,1,31.2969-8.1739A116.0369,116.0369,0,0,1,1135.6685,1665.744Z"/><path class="cls-4" d="M1234.3062,1832.7352a82.8832,82.8832,0,0,1-27.248-17.4385,74.9385,74.9385,0,0,1-17.5166-25.77,82.4378,82.4378,0,0,1-6.15-31.8408v-6.2286a98.4676,98.4676,0,0,1,6.0723-35.2666,81.8279,81.8279,0,0,1,16.9716-27.4814,76.5364,76.5364,0,0,1,25.8467-17.9053,81.9814,81.9814,0,0,1,32.542-6.3838q18.2168,0,32.4639,5.9942a68.16,68.16,0,0,1,24.2119,16.8935,73.6278,73.6278,0,0,1,14.9473,26.2364,106.0958,106.0958,0,0,1,5.1386,33.8652v18.373H1227.2994v.4668a59.5939,59.5939,0,0,0,5.6055,16.2715,41.1446,41.1446,0,0,0,9.1865,11.1319,43.1171,43.1171,0,0,0,13.5459,7.9414,47.9665,47.9665,0,0,0,16.66,2.8027,65.6985,65.6985,0,0,0,24.7569-4.8272,45.5839,45.5839,0,0,0,19.4629-14.48l21.6425,23.3554q-8.2543,11.6778-26.1582,21.1758-17.9062,9.5-42.3505,9.4981A94.0009,94.0009,0,0,1,1234.3062,1832.7352Zm16.8155-130.7129a30.7582,30.7582,0,0,0-10.587,7.3965,41.6643,41.6643,0,0,0-7.7851,11.5215,62.945,62.945,0,0,0-4.6719,14.9472h71.001v-3.4248a33.7522,33.7522,0,0,0-2.4912-12.9238,33.2942,33.2942,0,0,0-6.8516-10.5879,31.91,31.91,0,0,0-10.665-6.9287,38.3642,38.3642,0,0,0-14.5586-2.5684A34.021,34.021,0,0,0,1251.1217,1702.0223Z"/></svg>