<svg id="Layer_1" data-name="Layer 1" xmlns="http://www.w3.org/2000/svg" xmlns:xlink="http://www.w3.org/1999/xlink" viewBox="0 0 1908.3999 1581.279"><defs><style>.cls-1,.cls-2,.cls-3,.cls-58{fill:none;}.cls-1{stroke:#4b7bec;}.cls-1,.cls-10,.cls-11,.cls-12,.cls-13,.cls-14,.cls-15,.cls-16,.cls-17,.cls-18,.cls-19,.cls-2,.cls-20,.cls-21,.cls-22,.cls-23,.cls-24,.cls-25,.cls-26,.cls-27,.cls-28,.cls-29,.cls-3,.cls-30,.cls-31,.cls-32,.cls-33,.cls-34,.cls-35,.cls-36,.cls-37,.cls-38,.cls-39,.cls-4,.cls-40,.cls-41,.cls-42,.cls-43,.cls-44,.cls-45,.cls-46,.cls-47,.cls-48,.cls-49,.cls-5,.cls-50,.cls-51,.cls-52,.cls-53,.cls-58,.cls-6,.cls-7,.cls-8,.cls-9{stroke-miterlimit:10;}.cls-1,.cls-2,.cls-3{stroke-width:12px;}.cls-2{stroke:#26de81;}.cls-3{stroke:#45aaf2;}.cls-10,.cls-11,.cls-12,.cls-13,.cls-14,.cls-15,.cls-16,.cls-17,.cls-18,.cls-19,.cls-20,.cls-21,.cls-22,.cls-23,.cls-24,.cls-25,.cls-26,.cls-27,.cls-28,.cls-29,.cls-30,.cls-31,.cls-32,.cls-33,.cls-34,.cls-35,.cls-36,.cls-37,.cls-38,.cls-39,.cls-4,.cls-40,.cls-41,.cls-42,.cls-43,.cls-44,.cls-45,.cls-46,.cls-47,.cls-48,.cls-49,.cls-5,.cls-50,.cls-51,.cls-52,.cls-53,.cls-6,.cls-7,.cls-8,.cls-9{stroke-width:6px;}.cls-4{fill:url(#linear-gradient);stroke:url(#linear-gradient-2);}.cls-5{fill:url(#linear-gradient-3);stroke:url(#linear-gradient-4);}.cls-10,.cls-6{fill:url(#linear-gradient-5);}.cls-6{stroke:url(#linear-gradient-6);}.cls-11,.cls-7{fill:url(#linear-gradient-7);}.cls-7{stroke:url(#linear-gradient-8);}.cls-12,.cls-8{fill:url(#linear-gradient-9);}.cls-8{stroke:url(#linear-gradient-10);}.cls-9{fill:url(#linear-gradient-11);stroke:url(#linear-gradient-12);}.cls-10{stroke:url(#linear-gradient-14);}.cls-11{stroke:url(#linear-gradient-16);}.cls-12{stroke:url(#linear-gradient-18);}.cls-13{fill:url(#linear-gradient-19);stroke:url(#linear-gradient-20);}.cls-14{fill:url(#linear-gradient-21);stroke:url(#linear-gradient-22);}.cls-15{fill:url(#linear-gradient-23);stroke:url(#linear-gradient-24);}.cls-16{fill:url(#linear-gradient-25);stroke:url(#linear-gradient-26);}.cls-17{fill:url(#linear-gradient-27);stroke:url(#linear-gradient-28);}.cls-18{fill:url(#linear-gradient-29);stroke:url(#linear-gradient-30);}.cls-19{fill:url(#linear-gradient-31);stroke:url(#linear-gradient-32);}.cls-20{fill:url(#linear-gradient-33);stroke:url(#linear-gradient-34);}.cls-21{fill:url(#linear-gradient-35);stroke:url(#linear-gradient-36);}.cls-22{fill:url(#linear-gradient-37);stroke:url(#linear-gradient-38);}.cls-23{fill:url(#linear-gradient-39);stroke:url(#linear-gradient-40);}.cls-24,.cls-25,.cls-26,.cls-27,.cls-28,.cls-29,.cls-30,.cls-31,.cls-32,.cls-33,.cls-34,.cls-35,.cls-36,.cls-37,.cls-38,.cls-39,.cls-40,.cls-41,.cls-42,.cls-43,.cls-44,.cls-45,.cls-46,.cls-47,.cls-48,.cls-49,.cls-50,.cls-51,.cls-52,.cls-53{fill:#fff;}.cls-24{stroke:url(#linear-gradient-41);}.cls-25{stroke:url(#linear-gradient-42);}.cls-26{stroke:url(#linear-gradient-43);}.cls-27{stroke:url(#linear-gradient-44);}.cls-28{stroke:url(#linear-gradient-45);}.cls-29{stroke:url(#linear-gradient-47);}.cls-30{stroke:url(#linear-gradient-48);}.cls-31{stroke:url(#linear-gradient-49);}.cls-32{stroke:url(#linear-gradient-50);}.cls-33{stroke:url(#linear-gradient-53);}.cls-34{stroke:url(#linear-gradient-54);}.cls-35{stroke:url(#linear-gradient-55);}.cls-36{stroke:url(#linear-gradient-59);}.cls-37{stroke:url(#linear-gradient-60);}.cls-38{stroke:url(#linear-gradient-65);}.cls-39{stroke:url(#linear-gradient-66);}.cls-40{stroke:url(#linear-gradient-67);}.cls-41{stroke:url(#linear-gradient-68);}.cls-42{stroke:url(#linear-gradient-69);}.cls-43{stroke:url(#linear-gradient-70);}.cls-44{stroke:url(#linear-gradient-71);}.cls-45{stroke:url(#linear-gradient-72);}.cls-46{stroke:url(#linear-gradient-73);}.cls-47{stroke:url(#linear-gradient-74);}.cls-48{stroke:url(#linear-gradient-75);}.cls-49{stroke:url(#linear-gradient-76);}.cls-50{stroke:url(#linear-gradient-77);}.cls-51{stroke:url(#linear-gradient-78);}.cls-52{stroke:url(#linear-gradient-79);}.cls-53{stroke:url(#linear-gradient-80);}.cls-54,.cls-57{font-size:64px;font-family:Roboto-Regular, Roboto;}.cls-54{fill:#929497;}.cls-55{letter-spacing:-0.0073em;}.cls-56{letter-spacing:-0.0063em;}.cls-57{fill:#808184;}.cls-58{stroke:#a6a8ab;stroke-width:7px;}</style><linearGradient id="linear-gradient" x1="266.4311" y1="382.4219" x2="540.8596" y2="382.4219" gradientUnits="userSpaceOnUse"><stop offset="0" stop-color="#4b7bec"/><stop offset="1"/></linearGradient><linearGradient id="linear-gradient-2" x1="265.0242" y1="382.4219" x2="542.2665" y2="382.4219" gradientUnits="userSpaceOnUse"><stop offset="0.0007" stop-color="#4b7bec"/><stop offset="0.9993" stop-color="#26de81"/></linearGradient><linearGradient id="linear-gradient-3" x1="266.4311" y1="528.1361" x2="540.8596" y2="528.1361" gradientUnits="userSpaceOnUse"><stop offset="0" stop-color="#4b7bec"/><stop offset="0.2377" stop-color="#4165bc"/><stop offset="1"/></linearGradient><linearGradient id="linear-gradient-4" x1="265.0242" y1="528.1361" x2="542.2665" y2="528.1361" xlink:href="#linear-gradient-2"/><linearGradient id="linear-gradient-5" x1="266.4311" y1="673.8504" x2="540.8596" y2="673.8504" xlink:href="#linear-gradient-3"/><linearGradient id="linear-gradient-6" x1="263.8902" y1="673.8504" x2="543.4004" y2="673.8504" xlink:href="#linear-gradient-2"/><linearGradient id="linear-gradient-7" x1="266.4311" y1="819.5647" x2="540.8596" y2="819.5647" xlink:href="#linear-gradient-3"/><linearGradient id="linear-gradient-8" x1="263.6236" y1="819.5647" x2="543.6671" y2="819.5647" xlink:href="#linear-gradient-2"/><linearGradient id="linear-gradient-9" x1="266.4311" y1="965.279" x2="540.8596" y2="965.279" xlink:href="#linear-gradient-3"/><linearGradient id="linear-gradient-10" x1="263.5341" y1="965.279" x2="543.7566" y2="965.279" xlink:href="#linear-gradient-2"/><linearGradient id="linear-gradient-11" x1="266.4311" y1="528.1362" x2="540.8596" y2="528.1362" xlink:href="#linear-gradient-3"/><linearGradient id="linear-gradient-12" x1="263.8902" y1="528.1362" x2="543.4004" y2="528.1362" xlink:href="#linear-gradient-2"/><linearGradient id="linear-gradient-14" x1="265.0242" y1="673.8504" x2="542.2665" y2="673.8504" xlink:href="#linear-gradient-2"/><linearGradient id="linear-gradient-16" x1="265.0242" y1="819.5647" x2="542.2665" y2="819.5647" xlink:href="#linear-gradient-2"/><linearGradient id="linear-gradient-18" x1="263.8902" y1="965.279" x2="543.4004" y2="965.279" xlink:href="#linear-gradient-2"/><linearGradient id="linear-gradient-19" x1="266.4311" y1="1110.9933" x2="540.8596" y2="1110.9933" xlink:href="#linear-gradient-3"/><linearGradient id="linear-gradient-20" x1="263.6236" y1="1110.9933" x2="543.6671" y2="1110.9933" xlink:href="#linear-gradient-2"/><linearGradient id="linear-gradient-21" x1="266.4311" y1="675.279" x2="540.8596" y2="675.279" xlink:href="#linear-gradient-3"/><linearGradient id="linear-gradient-22" x1="263.6223" y1="675.279" x2="543.6684" y2="675.279" xlink:href="#linear-gradient-2"/><linearGradient id="linear-gradient-23" x1="266.4311" y1="820.9933" x2="540.8596" y2="820.9933" xlink:href="#linear-gradient-3"/><linearGradient id="linear-gradient-24" x1="263.8856" y1="820.9933" x2="543.4051" y2="820.9933" xlink:href="#linear-gradient-2"/><linearGradient id="linear-gradient-25" x1="266.4311" y1="966.7076" x2="540.8596" y2="966.7076" xlink:href="#linear-gradient-3"/><linearGradient id="linear-gradient-26" x1="265.0028" y1="966.7076" x2="542.2879" y2="966.7076" xlink:href="#linear-gradient-2"/><linearGradient id="linear-gradient-27" x1="266.4311" y1="1112.4219" x2="540.8596" y2="1112.4219" xlink:href="#linear-gradient-3"/><linearGradient id="linear-gradient-28" x1="265.0458" y1="1112.4219" x2="542.2449" y2="1112.4219" xlink:href="#linear-gradient-2"/><linearGradient id="linear-gradient-29" x1="266.4311" y1="1258.1362" x2="540.8596" y2="1258.1362" xlink:href="#linear-gradient-3"/><linearGradient id="linear-gradient-30" x1="263.895" y1="1258.1362" x2="543.3957" y2="1258.1362" xlink:href="#linear-gradient-2"/><linearGradient id="linear-gradient-31" x1="267.8596" y1="822.4219" x2="540.8596" y2="822.4219" xlink:href="#linear-gradient-3"/><linearGradient id="linear-gradient-32" x1="264.9606" y1="822.4219" x2="543.7587" y2="822.4219" xlink:href="#linear-gradient-2"/><linearGradient id="linear-gradient-33" x1="267.8596" y1="968.1362" x2="540.8596" y2="968.1362" xlink:href="#linear-gradient-3"/><linearGradient id="linear-gradient-34" x1="265.0477" y1="968.1362" x2="543.6716" y2="968.1362" xlink:href="#linear-gradient-2"/><linearGradient id="linear-gradient-35" x1="267.8596" y1="1113.8504" x2="540.8596" y2="1113.8504" xlink:href="#linear-gradient-3"/><linearGradient id="linear-gradient-36" x1="265.3059" y1="1113.8504" x2="543.4134" y2="1113.8504" xlink:href="#linear-gradient-2"/><linearGradient id="linear-gradient-37" x1="267.8596" y1="1259.5647" x2="540.8596" y2="1259.5647" xlink:href="#linear-gradient-3"/><linearGradient id="linear-gradient-38" x1="266.4045" y1="1259.5647" x2="542.3148" y2="1259.5647" xlink:href="#linear-gradient-2"/><linearGradient id="linear-gradient-39" x1="267.8596" y1="1405.279" x2="540.8596" y2="1405.279" xlink:href="#linear-gradient-3"/><linearGradient id="linear-gradient-40" x1="266.4907" y1="1405.279" x2="542.2286" y2="1405.279" xlink:href="#linear-gradient-2"/><linearGradient id="linear-gradient-41" x1="739.1279" y1="455.279" x2="1154.8649" y2="455.279" gradientUnits="userSpaceOnUse"><stop offset="0.0007" stop-color="#26de81"/><stop offset="0.9993" stop-color="#26de81"/></linearGradient><linearGradient id="linear-gradient-42" x1="740.8596" y1="309.5647" x2="1153.1332" y2="309.5647" xlink:href="#linear-gradient-41"/><linearGradient id="linear-gradient-43" x1="738.4104" y1="600.9933" x2="1155.5825" y2="600.9933" xlink:href="#linear-gradient-41"/><linearGradient id="linear-gradient-44" x1="738.1462" y1="746.7076" x2="1155.8467" y2="746.7076" xlink:href="#linear-gradient-41"/><linearGradient id="linear-gradient-45" x1="738.0313" y1="892.4219" x2="1155.9616" y2="892.4219" xlink:href="#linear-gradient-41"/><linearGradient id="linear-gradient-47" x1="740.8596" y1="600.9933" x2="1153.1332" y2="600.9933" xlink:href="#linear-gradient-41"/><linearGradient id="linear-gradient-48" x1="739.1279" y1="746.7076" x2="1154.8649" y2="746.7076" xlink:href="#linear-gradient-41"/><linearGradient id="linear-gradient-49" x1="738.4104" y1="892.4219" x2="1155.5825" y2="892.4219" xlink:href="#linear-gradient-41"/><linearGradient id="linear-gradient-50" x1="738.1462" y1="1038.1362" x2="1155.8467" y2="1038.1362" xlink:href="#linear-gradient-41"/><linearGradient id="linear-gradient-53" x1="740.8596" y1="892.4219" x2="1153.1332" y2="892.4219" xlink:href="#linear-gradient-41"/><linearGradient id="linear-gradient-54" x1="739.1279" y1="1038.1362" x2="1154.8649" y2="1038.1362" xlink:href="#linear-gradient-41"/><linearGradient id="linear-gradient-55" x1="738.4104" y1="1183.8504" x2="1155.5825" y2="1183.8504" xlink:href="#linear-gradient-41"/><linearGradient id="linear-gradient-59" x1="740.8596" y1="1183.8504" x2="1153.1332" y2="1183.8504" xlink:href="#linear-gradient-41"/><linearGradient id="linear-gradient-60" x1="739.1279" y1="1329.5647" x2="1154.8649" y2="1329.5647" xlink:href="#linear-gradient-41"/><linearGradient id="linear-gradient-65" x1="740.8596" y1="1475.279" x2="1153.1332" y2="1475.279" xlink:href="#linear-gradient-41"/><linearGradient id="linear-gradient-66" x1="1350.9616" y1="448.1362" x2="1619.4477" y2="448.1362" gradientUnits="userSpaceOnUse"><stop offset="0.0007" stop-color="#26de81"/><stop offset="0.9993" stop-color="#45aaf2"/></linearGradient><linearGradient id="linear-gradient-67" x1="1350.4101" y1="595.279" x2="1619.9992" y2="595.279" xlink:href="#linear-gradient-66"/><linearGradient id="linear-gradient-68" x1="1350.2652" y1="742.4219" x2="1621.5728" y2="742.4219" xlink:href="#linear-gradient-66"/><linearGradient id="linear-gradient-69" x1="1352.9712" y1="593.8504" x2="1617.4381" y2="593.8504" xlink:href="#linear-gradient-66"/><linearGradient id="linear-gradient-70" x1="1350.951" y1="740.9933" x2="1619.4583" y2="740.9933" xlink:href="#linear-gradient-66"/><linearGradient id="linear-gradient-71" x1="1350.4103" y1="888.1362" x2="1621.4276" y2="888.1362" xlink:href="#linear-gradient-66"/><linearGradient id="linear-gradient-72" x1="1350.8632" y1="739.5647" x2="1619.5461" y2="739.5647" xlink:href="#linear-gradient-66"/><linearGradient id="linear-gradient-73" x1="1353.0036" y1="886.7076" x2="1617.4058" y2="886.7076" xlink:href="#linear-gradient-66"/><linearGradient id="linear-gradient-74" x1="1350.9462" y1="1033.8504" x2="1620.8918" y2="1033.8504" xlink:href="#linear-gradient-66"/><linearGradient id="linear-gradient-75" x1="1350.3897" y1="885.279" x2="1620.0197" y2="885.279" xlink:href="#linear-gradient-66"/><linearGradient id="linear-gradient-76" x1="1350.8723" y1="1032.4219" x2="1619.537" y2="1032.4219" xlink:href="#linear-gradient-66"/><linearGradient id="linear-gradient-77" x1="1353.0365" y1="1179.5647" x2="1618.8015" y2="1179.5647" xlink:href="#linear-gradient-66"/><linearGradient id="linear-gradient-78" x1="1350.2576" y1="1030.9933" x2="1620.1517" y2="1030.9933" xlink:href="#linear-gradient-66"/><linearGradient id="linear-gradient-79" x1="1350.3918" y1="1178.1362" x2="1620.0175" y2="1178.1362" xlink:href="#linear-gradient-66"/><linearGradient id="linear-gradient-80" x1="1350.887" y1="1325.279" x2="1620.951" y2="1325.279" xlink:href="#linear-gradient-66"/></defs><g id="Input_Layer"><circle class="cls-1" cx="166.4311" cy="455.279" r="100"/><circle class="cls-1" cx="166.4311" cy="746.7076" r="100"/><circle class="cls-1" cx="166.4311" cy="1040.9933" r="100"/><circle class="cls-1" cx="167.8596" cy="1335.279" r="100"/></g><g id="Hide_Layer_1"><circle class="cls-2" cx="640.8596" cy="309.5647" r="100"/><circle class="cls-2" cx="640.8596" cy="600.9933" r="100"/><circle class="cls-2" cx="640.8596" cy="892.4219" r="100"/><circle class="cls-2" cx="640.8596" cy="1183.8504" r="100"/><circle class="cls-2" cx="640.8596" cy="1475.279" r="100"/></g><g id="Hidden_Layer_2"><circle class="cls-2" cx="1253.1332" cy="309.5647" r="100"/><circle class="cls-2" cx="1253.1332" cy="600.9933" r="100"/><circle class="cls-2" cx="1253.1332" cy="892.4219" r="100"/><circle class="cls-2" cx="1253.1332" cy="1183.8504" r="100"/><circle class="cls-2" cx="1253.1332" cy="1475.279" r="100"/></g><g id="Output_Layer"><circle class="cls-3" cx="1717.2761" cy="586.7076" r="100"/><circle class="cls-3" cx="1717.2761" cy="880.9933" r="100"/><circle class="cls-3" cx="1718.7047" cy="1175.279" r="100"/></g><g id="Interconnects_fc1"><line class="cls-4" x1="266.4311" y1="455.279" x2="540.8596" y2="309.5647"/><line class="cls-5" x1="540.8596" y1="600.9933" x2="266.4311" y2="455.279"/><line class="cls-6" x1="266.4311" y1="455.279" x2="540.8596" y2="892.4219"/><line class="cls-7" x1="266.4311" y1="455.279" x2="540.8596" y2="1183.8504"/><line class="cls-8" x1="266.4311" y1="455.279" x2="540.8596" y2="1475.279"/><line class="cls-9" x1="266.4311" y1="746.7076" x2="540.8596" y2="309.5647"/><line class="cls-10" x1="266.4311" y1="746.7076" x2="540.8596" y2="600.9933"/><line class="cls-11" x1="266.4311" y1="746.7076" x2="540.8596" y2="892.4219"/><line class="cls-12" x1="266.4311" y1="746.7076" x2="540.8596" y2="1183.8504"/><line class="cls-13" x1="266.4311" y1="746.7076" x2="540.8596" y2="1475.279"/><line class="cls-14" x1="266.4311" y1="1040.9933" x2="540.8596" y2="309.5647"/><line class="cls-15" x1="266.4311" y1="1040.9933" x2="540.8596" y2="600.9933"/><line class="cls-16" x1="266.4311" y1="1040.9933" x2="540.8596" y2="892.4219"/><line class="cls-17" x1="266.4311" y1="1040.9933" x2="540.8596" y2="1183.8504"/><line class="cls-18" x1="266.4311" y1="1040.9933" x2="540.8596" y2="1475.279"/><line class="cls-19" x1="267.8596" y1="1335.279" x2="540.8596" y2="309.5647"/><line class="cls-20" x1="267.8596" y1="1335.279" x2="540.8596" y2="600.9933"/><line class="cls-21" x1="267.8596" y1="1335.279" x2="540.8596" y2="892.4219"/><line class="cls-22" x1="267.8596" y1="1335.279" x2="540.8596" y2="1183.8504"/><line class="cls-23" x1="267.8596" y1="1335.279" x2="540.8596" y2="1475.279"/></g><g id="Interconnect_fc2"><line class="cls-24" x1="740.8596" y1="309.5647" x2="1153.1332" y2="600.9933"/><line class="cls-25" x1="740.8596" y1="309.5647" x2="1153.1332" y2="309.5647"/><line class="cls-26" x1="740.8596" y1="309.5647" x2="1153.1332" y2="892.4219"/><line class="cls-27" x1="740.8596" y1="309.5647" x2="1153.1332" y2="1183.8504"/><line class="cls-28" x1="740.8596" y1="309.5647" x2="1153.1332" y2="1475.279"/><line class="cls-24" x1="740.8596" y1="600.9933" x2="1153.1332" y2="309.5647"/><line class="cls-29" x1="740.8596" y1="600.9933" x2="1153.1332" y2="600.9933"/><line class="cls-30" x1="740.8596" y1="600.9933" x2="1153.1332" y2="892.4219"/><line class="cls-31" x1="740.8596" y1="600.9933" x2="1153.1332" y2="1183.8504"/><line class="cls-32" x1="740.8596" y1="600.9933" x2="1153.1332" y2="1475.279"/><line class="cls-26" x1="740.8596" y1="892.4219" x2="1153.1332" y2="309.5647"/><line class="cls-30" x1="740.8596" y1="892.4219" x2="1153.1332" y2="600.9933"/><line class="cls-33" x1="740.8596" y1="892.4219" x2="1153.1332" y2="892.4219"/><line class="cls-34" x1="740.8596" y1="892.4219" x2="1153.1332" y2="1183.8504"/><line class="cls-35" x1="740.8596" y1="892.4219" x2="1153.1332" y2="1475.279"/><line class="cls-27" x1="740.8596" y1="1183.8504" x2="1153.1332" y2="309.5647"/><line class="cls-31" x1="740.8596" y1="1183.8504" x2="1153.1332" y2="600.9933"/><line class="cls-34" x1="740.8596" y1="1183.8504" x2="1153.1332" y2="892.4219"/><line class="cls-36" x1="740.8596" y1="1183.8504" x2="1153.1332" y2="1183.8504"/><line class="cls-37" x1="740.8596" y1="1183.8504" x2="1153.1332" y2="1475.279"/><line class="cls-28" x1="740.8596" y1="1475.279" x2="1153.1332" y2="309.5647"/><line class="cls-32" x1="740.8596" y1="1475.279" x2="1153.1332" y2="600.9933"/><line class="cls-35" x1="740.8596" y1="1475.279" x2="1153.1332" y2="892.4219"/><line class="cls-37" x1="740.8596" y1="1475.279" x2="1153.1332" y2="1183.8504"/><line class="cls-38" x1="740.8596" y1="1475.279" x2="1153.1332" y2="1475.279"/></g><g id="Interconnect_output"><line class="cls-39" x1="1353.1332" y1="309.5647" x2="1617.2761" y2="586.7076"/><line class="cls-40" x1="1353.1332" y1="309.5647" x2="1617.2761" y2="880.9933"/><line class="cls-41" x1="1353.1332" y1="309.5647" x2="1618.7047" y2="1175.279"/><line class="cls-42" x1="1353.1332" y1="600.9933" x2="1617.2761" y2="586.7076"/><line class="cls-43" x1="1353.1332" y1="600.9933" x2="1617.2761" y2="880.9933"/><line class="cls-44" x1="1353.1332" y1="600.9933" x2="1618.7047" y2="1175.279"/><line class="cls-45" x1="1353.1332" y1="892.4219" x2="1617.2761" y2="586.7076"/><line class="cls-46" x1="1353.1332" y1="892.4219" x2="1617.2761" y2="880.9933"/><line class="cls-47" x1="1353.1332" y1="892.4219" x2="1618.7047" y2="1175.279"/><line class="cls-48" x1="1353.1332" y1="1183.8504" x2="1617.2761" y2="586.7076"/><line class="cls-49" x1="1353.1332" y1="1183.8504" x2="1617.2761" y2="880.9933"/><line class="cls-50" x1="1353.1332" y1="1183.8504" x2="1618.7047" y2="1175.279"/><line class="cls-51" x1="1353.1332" y1="1475.279" x2="1617.2761" y2="586.7076"/><line class="cls-52" x1="1353.1332" y1="1475.279" x2="1617.2761" y2="880.9933"/><line class="cls-53" x1="1353.1332" y1="1475.279" x2="1618.7047" y2="1175.279"/></g><text class="cls-54" transform="translate(8.9937 233.565)">Input L<tspan class="cls-55" x="195.0938" y="0">a</tspan><tspan class="cls-56" x="229.4375" y="0">y</tspan><tspan x="259.3125" y="0">er</tspan></text><text class="cls-57" transform="translate(744.184 66.808)">Hidden L<tspan class="cls-55" x="252.8438" y="0">a</tspan><tspan class="cls-56" x="287.1875" y="0">y</tspan><tspan x="317.0625" y="0">ers</tspan></text><polyline class="cls-58" points="640.86 166.757 640.86 121.648 1253.133 121.648 1253.133 166.757"/><text class="cls-54" transform="translate(1537.533 290.8363)">Output L<tspan class="cls-55" x="242.5625" y="0">a</tspan><tspan class="cls-56" x="276.9063" y="0">y</tspan><tspan x="306.7813" y="0">er</tspan></text></svg>