<svg id="Layer_1" data-name="Layer 1" xmlns="http://www.w3.org/2000/svg" viewBox="0 0 4250.0631 1219.3633"><defs><style>.cls-1{fill:#2ecc71;}.cls-1,.cls-2,.cls-4{stroke:#231f20;}.cls-1,.cls-11,.cls-2,.cls-4,.cls-5,.cls-7,.cls-9{stroke-miterlimit:10;}.cls-1,.cls-11,.cls-2,.cls-4,.cls-7,.cls-9{stroke-width:5px;}.cls-2{fill:#3498db;}.cls-3{font-size:235.458px;}.cls-3,.cls-6{fill:#231f20;font-family:Roboto-Regular, Roboto;}.cls-4{fill:#9b59b6;}.cls-11,.cls-5,.cls-7,.cls-9{fill:none;}.cls-5{stroke:#000;stroke-width:24px;}.cls-6{font-size:102.6px;}.cls-7{stroke:#e74c3c;}.cls-8{fill:#e74c3c;}.cls-9{stroke:#1abc9c;}.cls-10{fill:#1abc9c;}.cls-11{stroke:#16a085;}.cls-12{fill:#16a085;}</style></defs><path class="cls-1" d="M518.8931,516.4H168.6612V166.1678H518.8931Z"/><rect class="cls-1" x="518.8931" y="166.1678" width="350.2318" height="350.2318"/><rect class="cls-1" x="869.1249" y="166.1678" width="350.2318" height="350.2318"/><rect class="cls-1" x="1219.3567" y="166.1678" width="350.2318" height="350.2318"/><rect class="cls-2" x="168.6612" y="516.3996" width="350.2318" height="350.2318"/><rect class="cls-2" x="518.8931" y="516.3996" width="350.2318" height="350.2318"/><rect class="cls-2" x="869.1249" y="516.3996" width="350.2318" height="350.2318"/><rect class="cls-2" x="1219.3567" y="516.3996" width="350.2318" height="350.2318"/><text class="cls-3" transform="translate(277.6692 429.5806)">1</text><text class="cls-3" transform="translate(627.9016 429.5806)">2</text><text class="cls-3" transform="translate(978.133 429.5806)">3</text><text class="cls-3" transform="translate(1328.3655 429.5806)">4</text><text class="cls-3" transform="translate(277.6692 779.8121)">5</text><text class="cls-3" transform="translate(627.9016 779.8121)">6</text><text class="cls-3" transform="translate(978.133 779.8121)">7</text><text class="cls-3" transform="translate(1328.3655 779.8121)">8</text><rect class="cls-4" x="168.6612" y="866.6315" width="350.2318" height="350.2318"/><rect class="cls-4" x="518.8931" y="866.6315" width="350.2318" height="350.2318"/><rect class="cls-4" x="869.1249" y="866.6315" width="350.2318" height="350.2318"/><rect class="cls-4" x="1219.3567" y="866.6315" width="350.2318" height="350.2318"/><text class="cls-3" transform="translate(277.6692 1130.0445)">9</text><text class="cls-3" transform="translate(561.7937 1130.0445)">10</text><text class="cls-3" transform="translate(912.0256 1130.0445)">11</text><text class="cls-3" transform="translate(1262.258 1130.0445)">12</text><line class="cls-5" x1="1663.8928" y1="612.4019" x2="2141.7717" y2="612.4019"/><polyline points="2142.063 650.467 2335.613 610.247 2142.063 574.337"/><polyline class="cls-1" points="2874.57 688.708 2874.57 536.096 2721.957 536.096 2721.957 688.708 2569.345 688.708 2569.345 536.096 2416.733 536.096 2416.733 688.708 2569.345 688.708 2569.345 536.096 2721.957 536.096 2721.957 688.708"/><polygon class="cls-1" points="3027.182 688.708 3027.182 536.096 2874.57 536.096 2874.57 688.708 2721.957 688.708 3027.182 688.708"/><text class="cls-6" transform="translate(2464.2332 650.8767)">1</text><text class="cls-6" transform="translate(2616.8455 650.8767)">2</text><text class="cls-6" transform="translate(2769.4578 650.8767)">3</text><text class="cls-6" transform="translate(2922.0701 650.8767)">4</text><polyline class="cls-2" points="3485.019 688.708 3485.019 536.096 3332.407 536.096 3332.407 688.708 3179.794 688.708 3179.794 536.096 3027.182 536.096 3027.182 688.708 3179.794 688.708 3179.794 536.096 3332.407 536.096 3332.407 688.708"/><polygon class="cls-2" points="3637.631 688.708 3637.631 536.096 3485.019 536.096 3485.019 688.708 3332.407 688.708 3637.631 688.708"/><text class="cls-6" transform="translate(3074.6824 650.8767)">5</text><text class="cls-6" transform="translate(3233.4178 650.8767)">6</text><text class="cls-6" transform="translate(3379.907 650.8767)">7</text><text class="cls-6" transform="translate(3532.5193 650.8767)">8</text><polyline class="cls-4" points="4094.951 688.708 4094.951 536.096 3942.338 536.096 3942.338 688.708 3789.726 688.708 3789.726 536.096 3637.114 536.096 3637.114 688.708 3789.726 688.708 3789.726 536.096 3942.338 536.096 3942.338 688.708"/><polygon class="cls-4" points="4247.563 688.708 4247.563 536.096 4094.951 536.096 4094.951 688.708 3942.338 688.708 4247.563 688.708"/><text class="cls-6" transform="translate(3684.614 650.8767)">5</text><text class="cls-6" transform="translate(3843.3494 650.8767)">6</text><text class="cls-6" transform="translate(3989.8386 650.8767)">7</text><text class="cls-6" transform="translate(4142.4509 650.8767)">8</text><path class="cls-7" d="M210.9475,140.5576C252.9618,50.9185,369.6993-5.2051,488.04,3.36,558.6962,8.4735,623.0041,36.146,667.0947,78.005"/><polygon class="cls-8" points="639.924 80.565 707.498 130.758 674.08 53.5 639.924 80.565"/><path class="cls-9" d="M140.5576,223.7419C50.9185,265.5488-5.2051,381.71,3.36,499.4673c5.11,70.26,32.7489,134.2115,74.5606,178.082"/><polygon class="cls-10" points="53.431 684.585 130.758 717.842 80.424 650.373 53.431 684.585"/><path class="cls-7" d="M2462.7208,531.3976c13.435-31.3031,50.7641-50.9022,88.6059-47.9112a91.8782,91.8782,0,0,1,47.3486,17.3832"/><polygon class="cls-8" points="2584.048 503.225 2621.503 527.975 2601.445 487.812 2584.048 503.225"/><path class="cls-11" d="M2462.7208,531.3976c52.4323-82.4755,198.1164-134.114,345.8017-126.2336,103.9688,5.5477,196.9238,39.9525,250.4907,90.5861"/><polygon class="cls-12" points="3044.819 497.819 3082.397 522.381 3062.138 482.319 3044.819 497.819"/></svg>