<?xml version='1.0' encoding='ascii'?>
<svg xmlns="http://www.w3.org/2000/svg" version="1.1" width="1920" height="1080">
    <g id="ViewLayer_LineSet" xmlns:inkscape="http://www.inkscape.org/namespaces/inkscape" inkscape:groupmode="lineset" inkscape:label="ViewLayer_LineSet">
        <g xmlns:inkscape="http://www.inkscape.org/namespaces/inkscape" inkscape:groupmode="layer" id="strokes" inkscape:label="strokes">
            <path fill="none" stroke-width="3.0" stroke-linecap="butt" stroke-opacity="1.0" stroke="rgb(0, 0, 0)" stroke-linejoin="miter" d=" M 865.164, 464.266 874.206, 468.537 883.248, 472.809 892.290, 477.080 901.332, 481.351 910.373, 485.622 919.415, 489.894 928.457, 494.165 937.499, 498.436 946.541, 502.707 955.191, 506.793 " />
            <path fill="none" stroke-width="3.0" stroke-linecap="butt" stroke-opacity="1.0" stroke="rgb(0, 0, 0)" stroke-linejoin="miter" d=" M 955.191, 624.314 955.191, 614.314 955.191, 604.314 955.191, 594.314 955.191, 584.314 955.191, 574.314 955.191, 564.314 955.191, 554.314 955.191, 544.314 955.191, 534.314 955.191, 524.314 955.191, 514.314 955.191, 506.793 964.412, 502.923 971.658, 499.882 " />
            <path fill="none" stroke-width="3.0" stroke-linecap="butt" stroke-opacity="1.0" stroke="rgb(0, 0, 0)" stroke-linejoin="miter" d=" M 881.631, 457.355 872.410, 461.225 865.164, 464.266 865.164, 474.266 865.164, 484.266 865.164, 494.266 865.164, 504.266 865.164, 514.266 865.164, 524.266 865.164, 534.266 865.164, 544.266 865.164, 554.266 865.164, 564.266 865.164, 574.266 865.164, 581.787 874.206, 586.058 883.248, 590.329 892.290, 594.601 901.332, 598.872 910.373, 603.143 919.415, 607.414 928.457, 611.685 937.499, 615.957 946.541, 620.228 955.191, 624.314 964.412, 620.444 966.444, 619.590 " />
            <path fill="none" stroke-width="3.0" stroke-linecap="butt" stroke-opacity="1.0" stroke="rgb(0, 0, 0)" stroke-linejoin="miter" d=" M 982.911, 505.197 973.690, 509.068 972.610, 509.521 966.444, 512.109 966.444, 522.109 966.444, 532.109 966.444, 542.109 966.444, 544.427 966.444, 554.427 966.444, 564.427 966.444, 574.427 966.444, 584.427 966.444, 594.427 966.444, 604.427 966.444, 614.427 966.444, 619.590 966.444, 629.630 975.486, 633.901 984.528, 638.172 993.570, 642.443 1002.612, 646.714 1011.654, 650.986 1020.696, 655.257 1029.738, 659.528 1038.780, 663.799 1047.822, 668.070 1056.471, 672.156 1065.692, 668.286 1074.913, 664.416 1084.134, 660.546 1093.354, 656.676 1102.575, 652.806 1111.796, 648.936 1121.016, 645.065 1130.237, 641.195 1139.458, 637.325 1148.679, 633.455 1151.979, 632.070 1151.979, 622.070 1151.979, 621.420 1151.979, 611.420 1151.979, 601.420 1151.979, 591.420 1151.979, 581.420 1151.979, 571.420 1151.979, 561.420 1151.979, 551.757 1151.979, 541.718 1151.979, 536.217 1151.979, 526.217 1151.979, 516.217 1151.979, 514.549 1142.937, 510.278 1135.512, 506.771 " />
            <path fill="none" stroke-width="3.0" stroke-linecap="butt" stroke-opacity="1.0" stroke="rgb(0, 0, 0)" stroke-linejoin="miter" d=" M 966.444, 512.109 972.610, 515.021 981.652, 519.293 990.694, 523.564 999.736, 527.835 1008.778, 532.106 1017.819, 536.377 1026.861, 540.649 1035.903, 544.920 1044.945, 549.191 1050.698, 551.909 1056.471, 554.636 " />
            <path fill="none" stroke-width="3.0" stroke-linecap="butt" stroke-opacity="1.0" stroke="rgb(0, 0, 0)" stroke-linejoin="miter" d=" M 1056.471, 672.156 1056.471, 662.156 1056.471, 652.156 1056.471, 642.156 1056.471, 632.156 1056.471, 622.156 1056.471, 612.156 1056.471, 602.156 1056.471, 592.156 1056.471, 582.156 1056.471, 576.304 1056.471, 566.304 1056.471, 556.304 1056.471, 554.636 1065.692, 550.766 1073.890, 547.325 1083.111, 543.454 1092.332, 539.584 1101.552, 535.714 1110.773, 531.844 1119.994, 527.974 1129.215, 524.104 1138.435, 520.234 1147.656, 516.364 1151.979, 514.549 " />
            <path fill="none" stroke-width="3.0" stroke-linecap="butt" stroke-opacity="1.0" stroke="rgb(0, 0, 0)" stroke-linejoin="miter" d=" M 1151.979, 621.420 1161.021, 625.691 1163.917, 627.059 1173.138, 623.189 1182.359, 619.319 1191.579, 615.449 1200.800, 611.579 1210.021, 607.708 1219.242, 603.838 1228.463, 599.968 1237.683, 596.098 1246.904, 592.228 1256.125, 588.358 1259.425, 586.973 1259.425, 576.973 1259.425, 566.973 1259.425, 556.973 1259.425, 546.973 1259.425, 536.973 1259.425, 526.973 1259.425, 516.973 1259.425, 506.973 1259.425, 496.973 1259.425, 486.973 1259.425, 476.973 1259.425, 469.452 1250.383, 465.181 1242.958, 461.673 " />
            <path fill="none" stroke-width="3.0" stroke-linecap="butt" stroke-opacity="1.0" stroke="rgb(0, 0, 0)" stroke-linejoin="miter" d=" M 1163.917, 509.538 1173.138, 505.668 1182.359, 501.798 1191.579, 497.928 1200.800, 494.058 1210.021, 490.188 1219.242, 486.318 1228.463, 482.447 1237.683, 478.577 1246.904, 474.707 1256.125, 470.837 1259.425, 469.452 " />
            <path fill="none" stroke-width="3.0" stroke-linecap="butt" stroke-opacity="1.0" stroke="rgb(0, 0, 0)" stroke-linejoin="miter" d=" M 1163.917, 627.059 1163.917, 617.059 1163.917, 607.059 1163.917, 597.059 1163.917, 587.059 1163.917, 577.059 1163.917, 567.059 1163.917, 557.059 1163.917, 547.059 1163.917, 537.059 1163.917, 527.059 1163.917, 517.059 1163.917, 509.538 1158.144, 506.811 1149.102, 502.540 1147.450, 501.760 " />
            <path fill="none" stroke-width="3.0" stroke-linecap="butt" stroke-opacity="1.0" stroke="rgb(0, 0, 0)" stroke-linejoin="miter" d=" M 1050.698, 344.535 1050.698, 334.496 1041.656, 330.225 1032.615, 325.953 1023.573, 321.682 1014.531, 317.411 1005.489, 313.140 996.447, 308.869 987.405, 304.597 978.363, 300.326 972.610, 297.608 963.568, 293.337 960.671, 291.969 951.451, 295.839 942.230, 299.709 933.009, 303.579 923.788, 307.450 914.568, 311.320 905.347, 315.190 896.126, 319.060 886.905, 322.930 877.685, 326.800 868.464, 330.670 865.164, 332.055 865.164, 342.055 865.164, 352.055 865.164, 362.055 865.164, 372.055 865.164, 382.055 865.164, 392.055 865.164, 402.055 865.164, 412.055 865.164, 422.055 865.164, 432.055 865.164, 442.055 865.164, 449.576 874.206, 453.847 881.631, 457.355 890.673, 461.626 899.715, 465.897 908.756, 470.168 917.798, 474.440 926.840, 478.711 935.882, 482.982 944.924, 487.253 953.966, 491.524 955.191, 492.103 960.671, 489.803 966.444, 487.380 " />
            <path fill="none" stroke-width="3.0" stroke-linecap="butt" stroke-opacity="1.0" stroke="rgb(0, 0, 0)" stroke-linejoin="miter" d=" M 865.164, 332.055 874.206, 336.327 883.248, 340.598 892.290, 344.869 901.332, 349.140 910.373, 353.412 919.415, 357.683 928.457, 361.954 937.499, 366.225 946.541, 370.496 955.191, 374.582 " />
            <path fill="none" stroke-width="3.0" stroke-linecap="butt" stroke-opacity="1.0" stroke="rgb(0, 0, 0)" stroke-linejoin="miter" d=" M 955.191, 492.103 955.191, 482.103 955.191, 472.103 955.191, 462.103 955.191, 452.103 955.191, 442.103 955.191, 432.103 955.191, 426.480 955.191, 416.480 955.191, 406.480 955.191, 396.480 955.191, 386.480 955.191, 376.480 955.191, 374.582 964.412, 370.712 972.610, 367.271 981.830, 363.401 991.051, 359.531 1000.272, 355.661 1009.493, 351.791 1018.713, 347.921 1027.934, 344.050 1037.155, 340.180 1046.376, 336.310 1050.698, 334.496 " />
            <path fill="none" stroke-width="3.0" stroke-linecap="butt" stroke-opacity="1.0" stroke="rgb(0, 0, 0)" stroke-linejoin="miter" d=" M 1151.979, 382.338 1142.937, 378.067 1133.895, 373.796 1124.853, 369.525 1115.811, 365.254 1106.769, 360.982 1097.727, 356.711 1088.685, 352.440 1079.643, 348.169 1073.890, 345.451 1068.117, 342.724 1062.637, 340.135 1061.952, 339.812 1052.731, 343.682 1050.698, 344.535 1041.478, 348.405 1032.257, 352.275 1023.036, 356.145 1013.815, 360.015 1004.595, 363.886 995.374, 367.756 986.153, 371.626 976.932, 375.496 972.610, 377.310 966.444, 379.898 966.444, 389.898 966.444, 399.898 966.444, 409.898 966.444, 412.217 966.444, 422.217 966.444, 426.907 966.444, 436.907 966.444, 446.907 966.444, 456.907 966.444, 466.907 966.444, 476.907 966.444, 487.380 966.444, 497.419 971.658, 499.882 972.610, 500.331 981.652, 504.602 982.911, 505.197 991.953, 509.469 1000.995, 513.740 1010.037, 518.011 1013.366, 519.583 1022.408, 523.855 1031.450, 528.126 1040.492, 532.397 1049.534, 536.668 1050.698, 537.219 1056.471, 539.946 1061.952, 537.645 1062.637, 537.358 1071.858, 533.488 1073.890, 532.635 1083.111, 528.764 1092.332, 524.894 1101.552, 521.024 1110.773, 517.154 1111.223, 516.965 1120.443, 513.095 1129.664, 509.225 1135.512, 506.771 1144.733, 502.900 1147.450, 501.760 1151.979, 499.859 1151.979, 489.859 1151.979, 489.209 1151.979, 479.209 1151.979, 469.209 1151.979, 459.209 1151.979, 449.209 1151.979, 439.209 1151.979, 434.236 1151.979, 424.197 1151.979, 419.546 1151.979, 418.697 1151.979, 409.507 1151.979, 404.007 1151.979, 394.007 1151.979, 384.007 1151.979, 382.338 " />
            <path fill="none" stroke-width="3.0" stroke-linecap="butt" stroke-opacity="1.0" stroke="rgb(0, 0, 0)" stroke-linejoin="miter" d=" M 966.444, 379.898 972.610, 382.811 981.652, 387.082 990.694, 391.353 999.736, 395.624 1008.778, 399.895 1013.366, 402.063 1022.408, 406.334 1031.450, 410.605 1040.492, 414.876 1049.534, 419.148 1050.698, 419.698 1056.471, 422.425 " />
            <path fill="none" stroke-width="3.0" stroke-linecap="butt" stroke-opacity="1.0" stroke="rgb(0, 0, 0)" stroke-linejoin="miter" d=" M 1056.471, 539.946 1056.471, 529.946 1056.471, 519.946 1056.471, 509.946 1056.471, 499.946 1056.471, 489.946 1056.471, 479.946 1056.471, 474.323 1056.471, 464.323 1056.471, 454.323 1056.471, 444.093 1056.471, 434.093 1056.471, 424.093 1056.471, 422.425 1065.692, 418.555 1073.890, 415.114 1083.111, 411.244 1092.332, 407.374 1101.552, 403.503 1110.773, 399.633 1111.223, 399.445 1120.443, 395.574 1129.664, 391.704 1138.885, 387.834 1148.106, 383.964 1151.979, 382.338 " />
            <path fill="none" stroke-width="3.0" stroke-linecap="butt" stroke-opacity="1.0" stroke="rgb(0, 0, 0)" stroke-linejoin="miter" d=" M 1158.144, 299.438 1158.144, 289.398 1149.102, 285.127 1140.060, 280.856 1131.019, 276.585 1121.977, 272.314 1112.935, 268.042 1103.893, 263.771 1094.851, 259.500 1085.809, 255.229 1076.767, 250.958 1068.117, 246.872 1058.896, 250.742 1049.676, 254.612 1040.455, 258.482 1031.234, 262.352 1022.014, 266.222 1012.793, 270.093 1003.572, 273.963 994.351, 277.833 985.131, 281.703 975.910, 285.573 972.610, 286.958 972.610, 296.958 972.610, 297.608 " />
            <path fill="none" stroke-width="3.0" stroke-linecap="butt" stroke-opacity="1.0" stroke="rgb(0, 0, 0)" stroke-linejoin="miter" d=" M 972.610, 286.958 981.652, 291.229 990.694, 295.501 999.736, 299.772 1008.778, 304.043 1017.819, 308.314 1026.861, 312.585 1035.903, 316.857 1044.945, 321.128 1053.987, 325.399 1062.637, 329.485 " />
            <path fill="none" stroke-width="3.0" stroke-linecap="butt" stroke-opacity="1.0" stroke="rgb(0, 0, 0)" stroke-linejoin="miter" d=" M 1062.637, 340.135 1062.637, 330.135 1062.637, 329.485 1071.858, 325.615 1081.078, 321.745 1090.299, 317.875 1099.520, 314.004 1108.740, 310.134 1117.961, 306.264 1127.182, 302.394 1136.403, 298.524 1145.624, 294.654 1154.844, 290.784 1158.144, 289.398 " />
            <path fill="none" stroke-width="3.0" stroke-linecap="butt" stroke-opacity="1.0" stroke="rgb(0, 0, 0)" stroke-linejoin="miter" d=" M 1151.979, 489.209 1158.144, 492.121 1163.917, 494.848 1169.398, 492.548 1178.619, 488.678 1187.839, 484.808 1197.060, 480.938 1206.281, 477.068 1215.501, 473.197 1224.722, 469.327 1233.943, 465.457 1242.958, 461.673 1252.179, 457.803 1259.425, 454.762 1259.425, 444.762 1259.425, 434.762 1259.425, 424.762 1259.425, 414.762 1259.425, 404.762 1259.425, 394.762 1259.425, 384.762 1259.425, 374.762 1259.425, 364.762 1259.425, 354.762 1259.425, 344.762 1259.425, 337.241 1250.383, 332.970 1241.341, 328.699 1232.299, 324.427 1223.257, 320.156 1214.215, 315.885 1205.173, 311.614 1196.131, 307.343 1187.089, 303.071 1178.047, 298.800 1169.398, 294.714 1160.177, 298.584 1158.144, 299.438 1148.924, 303.308 1139.703, 307.178 1130.482, 311.048 1121.261, 314.918 1112.041, 318.788 1102.820, 322.658 1093.599, 326.529 1084.378, 330.399 1075.158, 334.269 1073.890, 334.801 1073.890, 344.801 1073.890, 345.451 " />
            <path fill="none" stroke-width="3.0" stroke-linecap="butt" stroke-opacity="1.0" stroke="rgb(0, 0, 0)" stroke-linejoin="miter" d=" M 1073.890, 334.801 1082.932, 339.072 1091.974, 343.343 1101.016, 347.614 1110.058, 351.886 1119.100, 356.157 1128.142, 360.428 1137.184, 364.699 1146.226, 368.971 1155.268, 373.242 1158.144, 374.601 1163.917, 377.328 " />
            <path fill="none" stroke-width="3.0" stroke-linecap="butt" stroke-opacity="1.0" stroke="rgb(0, 0, 0)" stroke-linejoin="miter" d=" M 1163.917, 494.848 1163.917, 484.848 1163.917, 474.848 1163.917, 464.848 1163.917, 454.848 1163.917, 444.848 1163.917, 434.848 1163.917, 429.225 1163.917, 419.225 1163.917, 409.225 1163.917, 399.225 1163.917, 389.225 1163.917, 379.225 1163.917, 377.328 1173.138, 373.457 1182.359, 369.587 1191.579, 365.717 1200.800, 361.847 1210.021, 357.977 1219.242, 354.107 1228.463, 350.237 1237.683, 346.367 1246.904, 342.496 1256.125, 338.626 1259.425, 337.241 " />
        </g>
    </g>
</svg>
